<?xml version="1.0" encoding="UTF-8"?><svg id="b" xmlns="http://www.w3.org/2000/svg" viewBox="0 0 125.27 95.18"><g id="c"><g id="d"><path d="m60.65,24.28c.06-.02.08-.08.04-.11-.04-.03-.11,0-.12.05-.01.07.01.09.08.07" fill="#fff" stroke-width="0"/><path d="m62.97,24.66c0-.05-.03-.09-.06-.06,0,.01,0,.04.02.06.03.03.04.03.04,0" fill="#fff" stroke-width="0"/><path d="m70.34,26.89s-.04.06-.04.11c-.01.08,0,.12.05.19.06.07.08.08.15.07.07-.01.08-.03.07-.09-.02-.15-.14-.31-.22-.28" fill="#fff" stroke-width="0"/><path d="m62.34,27.73s0,.06.02.06c.01,0,.03-.02.03-.05,0-.03,0-.06-.02-.06-.01,0-.03.02-.03.05" fill="#fff" stroke-width="0"/><path d="m70.73,25.89s.04,0,.03-.02c0-.02-.02-.02-.04-.02-.04.02-.04.03.01.04" fill="#fff" stroke-width="0"/><path d="m.65,94.27c-.05.05-.15.09-.21.08-.18-.02-.48.18-.43.28.02.05.1.16.16.25.07.09.12.2.16.3.1-.05.2-.09.3-.14-.03-.43-.02-.48.11-.54.1-.05.17-.05.28.03.27.21.53.07.3-.16-.14-.14-.56-.2-.65-.1" fill="#fff" stroke-width="0"/><path d="m62.04,24.89s.09.02.08-.01c0-.01-.04-.06-.08-.1l-.07-.07v.08s.05.09.08.1" fill="#fff" stroke-width="0"/><path d="m8.55,86.68c.37-.03.49-.1.38-.24-.03-.04-.05-.08-.06-.13-.18.12-.36.24-.55.36.05.01.12.01.23,0" fill="#fff" stroke-width="0"/><path d="m4.92,89.44c.12.06.26.08.31.06.05-.03.2-.03.33,0,.2.03.24.01.26-.11.01-.17-.21-.32-.27-.19-.06.13-.2.08-.32-.12-.09-.16-.09-.2,0-.26.06-.04.2-.08.32-.08.11,0,.22,0,.23-.01.01,0,0-.07-.05-.16-.03-.07-.07-.11-.15-.14-.22.15-.42.29-.61.43.06.15.03.21-.1.28-.23.12-.22.19.04.31" fill="#fff" stroke-width="0"/><path d="m71.19,26.23s0,.03.02.03c.01,0,.03,0,.03-.02,0-.01,0-.03-.02-.03-.01,0-.03,0-.03.02" fill="#fff" stroke-width="0"/><path d="m49.73,19.99s.05,0,.05-.03c0-.03-.02-.05-.05-.05-.07,0-.07.06,0,.08" fill="#fff" stroke-width="0"/><path d="m7.41,88.16c0-.05-.07-.14-.17-.2-.1-.06-.17-.14-.17-.18,0-.04-.03-.08-.07-.08-.14-.01-.1.26.06.45.16.18.32.19.34,0" fill="#fff" stroke-width="0"/><path d="m62.5,25.92c.07-.09-.03-.22-.15-.21-.1.01-.13.11-.04.19.07.07.15.08.19.01" fill="#fff" stroke-width="0"/><path d="m59.03,20.55c-.06,0-.1.15-.07.26.02.09.13.2.17.18.02,0,.04-.07.04-.17,0-.16-.05-.27-.14-.27" fill="#fff" stroke-width="0"/><path d="m58.77,22.38s.01.04.04.05c.02,0,.04,0,.04-.03,0-.05-.07-.07-.07-.02" fill="#fff" stroke-width="0"/><path d="m56.71,28.74c-.03.05,0,.19.05.18.04-.02.04-.1,0-.16-.03-.06-.03-.06-.06-.01" fill="#fff" stroke-width="0"/><path d="m59.28,22.01s.03.11.06.1c.01,0,.03-.02.03-.04,0-.03-.07-.08-.09-.06" fill="#fff" stroke-width="0"/><path d="m57.77,20.95s.03.08.06.06c.03-.02.03-.05-.01-.08-.02-.01-.04,0-.04.02" fill="#fff" stroke-width="0"/><path d="m58.49,21.06c-.03.08.02.15.14.17.05,0,.08,0,.11-.04.04-.07.03-.1-.03-.17-.07-.07-.17-.05-.21.04" fill="#fff" stroke-width="0"/><path d="m58.67,32.23s.02,0,.02-.03c0-.03,0-.04-.01-.02-.01.02-.01.04,0,.05" fill="#fff" stroke-width="0"/><path d="m56.96,30.65s-.04.03-.02.05c.01.02.04.03.06.02.02,0,.03-.03.04-.04,0-.04-.03-.06-.08-.04" fill="#fff" stroke-width="0"/><path d="m59.47,29.76s.03.03.05.04c.02,0,.03,0,.03-.02,0-.02-.03-.03-.05-.04-.02,0-.03,0-.03.02" fill="#fff" stroke-width="0"/><path d="m60.46,31.43c-.05.03-.02.1.06.12.06,0,.07-.03.02-.09-.03-.04-.05-.04-.08-.02" fill="#fff" stroke-width="0"/><path d="m64.85,23.71c-.05-.02-.09,0-.07.03,0,.01.04.01.07,0,.05-.01.05-.01,0-.03" fill="#fff" stroke-width="0"/><path d="m57.55,31.63s.07.06.08.03c.03-.04,0-.12-.07-.13-.07-.02-.08.02-.02.1" fill="#fff" stroke-width="0"/><path d="m57.25,31.43s.02-.07,0-.08c-.03,0-.06.05-.05.08-.11.02-.17.13-.1.2.06.06.21.02.24-.07.03-.08,0-.13-.09-.13" fill="#fff" stroke-width="0"/><path d="m27,52.49s-.05.08-.04.15c0,0,0,.01,0,.02.01-.06.02-.11.03-.17" fill="#fff" stroke-width="0"/><path d="m22.14,53.58c0,.07.04.11.08.14,0-.06,0-.12.01-.17,0,.01-.09.02-.09.04" fill="#fff" stroke-width="0"/><path d="m19.93,69.74c.01-.09.02-.18.04-.27-.01,0-.03.01-.03.03-.06.08.02.2,0,.25" fill="#fff" stroke-width="0"/><path d="m22.11,54.25s.02.04.04.08c0-.05-.01-.08-.04-.08" fill="#fff" stroke-width="0"/><path d="m19.87,70.36s0-.03,0-.04c0,0-.01,0-.02,0-.04,0,.05.03.02.04" fill="#fff" stroke-width="0"/><path d="m25.47,87.03s0-.01,0-.02c-.04,0-.08,0-.12,0,.02-.02.09.04.11.02" fill="#fff" stroke-width="0"/><path d="m28.43,81.04s-.05.08-.07.12c.05,0,.09,0,.14,0,0,0-.07-.12-.07-.12" fill="#fff" stroke-width="0"/><path d="m97.47,9.6s-.02.03-.04.03c.01,0,.03-.02.04-.03" fill="#fff" stroke-width="0"/><path d="m110.51,9.03s0,0,0,0c0,.02,0,.04.01.05.05.02.03-.09-.01-.06" fill="#fff" stroke-width="0"/><path d="m48.94,22.1s.07.06.13.05c.04,0,.04-.01,0-.06-.04-.05-.12-.04-.14.01" fill="#fff" stroke-width="0"/><path d="m16.71,84.47s-.08.06-.09.15c0,.08.02.14.06.11.04-.02.08-.09.09-.15,0-.06-.02-.11-.06-.11" fill="#fff" stroke-width="0"/><path d="m33.21,43.19s-.06-.02-.1-.03c0,0,0,0,0,.01,0,.01.1,0,.1.02" fill="#fff" stroke-width="0"/><path d="m124.59,10.81s0-.02.02-.05c-.06-.29-.16-.4-.36-.52.04.04.14.13.1.15-.06.04-.31-.1-.3-.18,0-.04.17.03.21.01,0,0,0-.13,0-.12-.08-.04-.22.06-.32.04-.36-.08-.71-.22-1.08-.08-.24.09-.5.21-.71.35.04.03.06.05,0,.07-.02,0-.05-.01-.06-.01-.22.18-.32.47-.49.75-.06.11-.26.14-.35.24-.12.13-.22.19-.38.16-.09-.01-.19.03-.27,0-.06-.01-.06-.11-.1-.15-.28-.24-.69-.16-1.04-.21-.06,0-.11-.14-.17-.14,0,0-.01.03-.01.04.01.1-.02,0-.17.05-.17.06-.06.09-.19-.04-.01-.01-.09.12-.1.1-.22.07-.47.06-.68.18-.27.16-.28.47-.34.79-.03.16-.09.33-.14.48-.12.39-.44.69-.88.68-.17,0-.34-.12-.51-.12-.26-.01-.55.09-.78-.02-.6-.28-.95-.84-1.18-1.53-.12-.37-.34-.69-.52-1.03,0,0,0,.07,0,.07-.07-.02-.11-.17-.1-.18,0-.02.14-.04.16-.05-.07-.12-.2-.22-.27-.34-.11-.17-.21-.35-.31-.53-.27-.48-.6-.93-.89-1.4-.27-.44-.56-.81-.99-.97,0,0,.05.1.05.1,0,.02-.12.05-.14.04-.02,0,.02-.09.02-.12,0,0-.04.03-.04.03-.16-.05-.32-.13-.5-.15-.38-.05-.77.07-1.09.35-.32.28-.39.66-.4,1.12,0,.17-.16.33-.18.5-.03.25-.1.5-.11.75-.03.43.06.89-.1,1.3-.12.34-.4.59-.7.73-.02.01-.1-.09-.12-.08-.63.33-1.25.33-1.9.27-.56-.05-1.1-.16-1.57-.47-.39-.25-.6-.7-.89-1.07-.32-.4-.8-.64-1.21-.93-.47-.32-.91-.68-1.45-.83-.72-.19-1.49-.11-2.23.04-.52.1-.94.4-1.37.71,0,0,0-.01.03,0,.16.08.21.24.08.28-.09.03-.32-.15-.32-.23-.23.18-.43.39-.64.62-.18.2-.45.39-.52.67-.09.38.06.77.18,1.12.16.47.31.94.49,1.4.17.43.24.89.16,1.38-.05.31-.18.58-.39.81-.41.47-.84.91-1.37,1.17-.73.36-1.52.56-2.29.62-.51.04-1.04-.16-1.55-.16-.63,0-1.26.09-1.87-.03-.95-.21-1.83-.65-2.64-1.17,0,0,.06-.11.06-.11-.13-.08-.26-.17-.38-.26-.84-.6-1.76-1.07-2.59-1.68-.92-.68-1.9-1.21-2.94-1.65-.68-.29-1.38-.56-2.06-.84-1.81-.74-3.66-1.36-5.6-1.69-1.37-.23-2.75-.37-4.13-.5-.85-.08-1.69-.21-2.54-.24-1.58-.06-3.18-.08-4.77,0-1.6.08-3.18.33-4.78.5-1.21.13-2.42.15-3.62.29-.89.1-1.78.15-2.66.3-.28.04-.56.29-.83.33-5.23-1.64-10.31-4.5-14.99-9.42-1.46,8.68-2.87,17.45-4.34,26.13.53-4.44,1.01-9.49,1.81-15.61-.09.11-.12.23-.31.22-.21-.02-.29-.09-.32-.31-.01-.12-.04-.18-.06-.2-.04-.18-.17-.21-.1-.35.08-.17.42-.31.52-.29.16.01.33.18.4.43.4-3.08,1.02-6.41,1.54-10.09.15-1.1-2.17-1.49-2.38-.4-5.51,27.99-7.09,36.4-9.52,52.79,0-.02-.01.01,0,.02.1.04.15.3.05.29-.01,0-.03-.02-.05-.03-.01.22-.01.44-.04.66,0,0,0-.02-.02-.04,0,.12-.07.38-.19.69-.02.04.04.1.01.12-.06.42-.18.85-.24,1.29.14-.1.11-.06.2.1.06.1.22.06.28.06.15.02.45.31.44.42,0,.1-.39.04-.44-.07-.02-.04-.21-.16-.35-.18-.07,0-.12.1-.16.09-.05.35-.08.71-.13,1.08.04-.06.1-.16.19-.26.29-.29.59-.37.79-.11.21.28.1.61-.12.79-.28.23-.68.26-.86-.05-.06-.09-.11-.23-.13-.29-.12.79-.24,1.6-.36,2.44.02,0,.23,0,.25.04.02.04-.1.11-.14.1-.02,0-.12,0-.13-.02-.19,1.3-.2,2.67-.4,4.09.17.1.32.21.34.28.01.06-.1.17-.16.22-.08.07-.14.06-.32-.14-.03.19-.16.39-.19.59.04.08.08.15.07.24,0,.07,0,.14-.07.22-.08.56-.09,1.13-.17,1.71.06-.08.06,0,.19.05.29.1.36.09.23.33-.11.21-.28.26-.36.09-.01-.02-.03,0-.07-.02-.06.4-.11.81-.17,1.22.1-.08.29-.08.39-.12.17-.05.18-.2.22-.41.04-.23.08-.24.24-.22.13.01.29.03.3.15,0,.11-.12.07-.19.07-.06,0-.12.14-.15.2-.06.12.12.26.36.28.13.01.05.02,0,.15-.03.09-.06.21-.06.24,0,.03-.05.13-.21.11-.16-.01-.39-.1-.41-.06-.04.08-.53.03-.6-.05-.03.18.02.34,0,.52.35-.08.39-.04.47-.03.11.02.24.58.17.84-.05.19-.16.24-.42.26-.16.01-.35.03-.42.06-.02,0,0-.02-.02-.02-.03.25-.21.48-.25.73.02-.03.11-.08.13-.11.18-.19.22-.1.45,0,.13.06.36.15.46.14.09-.02.24-.14.34-.1.14.05.25.15.24.32-.01.12-.13.32-.16.32-.37,0-.5-.01-.72.17-.33.27-.63.18-.72-.18-.02.17-.05.33-.08.5,0,.01-.04.06-.04.07.07.16.27.36.24.42-.02.04-.27,0-.36.05-.03.19.06.42.03.61.01,0,0,0,.02,0,.33-.12.44-.03.18.14-.16.11-.26.17-.18.28.14.21.1.15-.09-.05-.02.12,0,.19-.02.32.19-.02.25.15.23.33-.02.26-.14.4-.34.28-.02.16.03.3.01.46.02.01-.07.03-.06.06.03.06.07.14-.01.18-.01.1-.08.12-.09.23.2-.09.41.06.52.29.12.25.11.22-.22.33-.13.04-.36.14-.43.24-.1.15-.06.3.03.47.07.12.2.14.29.13.14-.03.48.36.39.44-.03.03-.24-.03-.36-.11-.19-.14-.09-.17-.14-.03-.04.13-.34.1-.43.04-.12.83-.25,1.68-.37,2.55-.02.12.08.27.11.37.08.05.2.09.3.13.37.13.49.1.68.43.17.3.09.44-.07.43-.06,0-.09.09-.16.24-.07.15-.3.25-.35.33-.05.07-.15.28-.15.44,0,.15,0,.27-.04.32-.04.06,0,.24.07.29.06.04.07.07.06.15-.01.18-.11.24-.22.11-.04-.05-.18-.13-.29-.15-.1-.01-.19-.09-.26-.16-.19-.17-.49-.1-.51.08,0,.08.04.18.01.16-.66-.39-.68-.48-.61-.63.02-.05-.03-.24-.11-.27-.19-.08-.18,0,.07-.12.12-.05.24-.16.3-.18.06-.02.25-.14.36-.29.11-.15.19-.41.25-.4.14.01.35-.09.43-.32.04-.13-.01-.23-.09-.32-.11.02-.24-.08-.35-.06,0,0,.02.11.02.12-.01.16-.04.14-.22.12-.17-.01-.1.06-.11.31,0,.33-.31.58-.7.55-.16-.01-.31-.1-.38,0-.13.18-.21.21-.24.03-.01-.09-.06-.16-.23-.21-.18-.05-.24-.11-.26-.25-.44.17-.84.4-1.26.62.04.15.04.21-.04.33-.07.1-.23.2-.3.21-.12.01-.24-.12-.29-.23-.24.14-.41.39-.66.55,0,.01-.12,0-.11.02.06.07.19-.07.43-.18.41-.18.54-.04.45.29-.08.31-.04.33-.3.33-.11,0-.26.06-.34.08-.1.03-.14-.06-.21-.27-.05-.15-.07-.12-.14-.15-.13.09-.26.11-.4.2.03.04-.06.06-.18.16-.12.11-.17.26-.17.4,0,.2-.01.26-.24.24-.27-.02-.46.03-.48.23,0,.07,0,.05-.06.04-.05,0-.17.2-.29.31-.11.09-.12.04-.26.04-.11,0-.03-.02-.09-.11-.02-.03-.05.01-.06-.02-.21.14-.42.26-.65.42.15-.07.25.03.31.22.09.28.4.27.53,0,.09-.18.12-.18.23-.14.08.03.13-.05.16-.08.08-.11.42,0,.36.12-.03.06-.13.18-.17.18-.05,0-.17,0-.3.11-.18.15-.23.22-.18.33.09.21.29.39.46.43.12.03.24.12.19.39-.03.19-.12.35-.08.35.15.01.11.14-.2.32-.18.1-.4.17-.4.25-.01.17.17.28.32.16.06-.05.17-.21.34-.19.16.01.15.13.27.03.11-.1.04-.11.04-.26.01-.41.12-.45.53-.31.3.1.43.11.38.36-.06.31-.02.41.21.21.18-.15.48-.18.6-.03,0,0,.05.07.05.08.09-.02.14-.18.24-.2.02-.03.06.01.07-.03,0-.1-.02-.24-.11-.27-.17-.06-.11,0,.02-.27.07-.15-.02-.31-.1-.56-.05-.19-.02-.32,0-.35.04-.03.1-.06.12,0,.06.24.24.44.45.42.15-.01.12.04.14.12.04.13.55.19.68.08.05-.04.1-.22.11-.35.01-.13.15-.25.24-.35.08-.09.07-.12.07-.24,0-.11,0-.16-.08-.23-.1-.08-.31-.15-.28-.19.03-.04.18.07.28.15.11.08.21.09.27.06,0,.02,0,.04.02.07.05.08.29.08.4.12.15.06.22.23.35.56.12.3.23.44.32.45.2.02.33.2.23.39-.03.07-.11.07-.16.1.17-.01.35.1.52.09.01,0,.04-.07.06-.13.38-.03.77-.01,1.14-.04-.08-.15-.1-.25-.02-.28.04-.02.06.11.15.22.02.02.11-.12.13-.1.18-.01.37.08.55.06.05-.06.18-.13.18-.2,0-.09-.05-.17,0-.17.29,0,.65-.13.66-.21,0-.03-.05-.12-.13-.2-.3-.33,0-.59.34-.3.13.11.08.21.03.46-.05.28,0,.22-.18.18-.25-.05-.32.08-.12.21.03.02.02.07.04.1.15-.01.29.01.43,0,.01-.05.04-.03.07-.02.02,0,.05-.03.07,0,.89-.07,1.75-.14,2.6-.21.07-.07.15-.18.22-.17.02,0,.07.04.11.09.23-.02.44.02.67,0,0-.06.08-.17.14-.16.05,0,.08.12.09.16.17-.01.33,0,.49-.01-.02-.02-.06-.03-.07-.05-.13-.17-.13-.45,0-.56.05-.04.16-.05.22-.05.05,0,.22,0,.28-.07.12-.19.11-.17.14.16.01.2.01.35-.1.49.76-.04,1.52.01,2.24-.04.05-.03.09-.08.14-.05.33-.02.64-.16.97-.18-.04-.06,0-.08.11-.13.1-.04.26-.07.32,0,.04.05-.02.07,0,.11.59-.04,1.16,0,1.73-.04.06-.05.11-.1.11-.18,0-.28.03-.3.39-.62.38-.34.46-.39.58-.22.06.09.05.18-.09.24-.14.06-.13.07-.11.28.02.21-.04.33-.16.43.21-.01.44.09.65.08-.08-.06-.09-.2-.02-.31.09.1.18.08.18.13.39-.02.77.06,1.15.04-.04-.03-.12-.06-.16-.12-.16-.25-.13-.41.03-.45.33-.09.66.38.45.6,5.31-.27,9.64-.38,13.62-.34.02-.08.07-.23.17-.22.09,0,.12.22.1.29,1.09.01,2.16.03,3.21.05,0,0,.01-.12.02-.13.14-.12.27-.06.32.06,10.4.27,19.65,1.27,40.39,1.34,7.24.02-6.62-2.66-13.73-3.22-14.13-1.12-21.21-2.04-28.26-2.7-.05.14-.15.09-.25,0-.02-.02-.01-.15-.02-.18-1.38-.13-2.77-.17-4.21-.26-.04.16-.2.23-.29.05-.24-.01-.45-.06-.7-.08.03.04.14.06.13.11-.01.11-.45.37-.5.3-.06-.08-.04-.37.02-.52-1.17-.06-2.4.02-3.7-.02-.03.08-.06.19-.15.22-.1.04-.3,0-.36-.04-.07-.03-.08-.12-.07-.21-1.3-.03-2.67-.2-4.15-.2-.01,0,0,.22-.03.22-.06.01-.15-.15-.2-.18-.33,0-.62.13-.96.13.09.14.18.29.14.32-.09.07-.1,0-.1-.1,0-.06-.16-.09-.22-.12-.05-.02-.06-.08-.07-.14-1.42,0-2.93-.06-4.55-.02.06.02.03.11.02.17-.01.11-.12.15-.19.07-.03-.04-.09-.12-.05-.18.01-.02.07-.11.09-.12-.17,0-.25.17-.42.17.08.14-.06.25-.19.37-.08.07-.15.26-.14.39.01.16.08.25-.02.24-.09,0-.14-.12-.1-.22.04-.1-.04-.09-.15-.18-.16-.13-.17-.36-.07-.56-.45,0-.91-.03-1.38-.02-.08.07-.18.1-.28.14-.3.13-.77.07-1.04-.08-.04-.02-.1-.04-.13-.07-.32.01-.62.13-.94.14-.04.09-.17.1-.25.01-.24,0-.47-.16-.71-.15-.02.01-.01.14-.03.15-.07.1-.12.09-.28,0-.02-.01-.02,0-.03-.02-.48.02-.95.1-1.45.12,0,.03-.08-.06-.1-.03-.03.07.15.19.24.32.13.17.07.25-.01.33-.14.14-.34.14-.5-.06-.1-.13-.16-.07-.31-.04-.59.09-.61-.02-.75-.3-.13-.26-.21-.38-.12-.63.02-.07.13-.12.16-.12.01,0,.04.02.05.02.04-.15-.01-.22.03-.37-.19.01-.14-.07.06-.11.01,0,.09-.06.12-.06.08-.29.14-.62.21-.91-.11-.13-.25-.39-.13-.6.08-.15.29-.16.36-.19.05-.19.03-.48.08-.67-.17.15-.35.12-.59-.04-.24-.15-.24-.03-.18-.76.04-.46.01-.61.12-.6.07,0,.05.18.08.25.05.11.16.04.31-.03.16-.08.2-.03.38.22.04.05.16.1.18.14.18-.72.21-1.46.38-2.15-.01-.01-.05.03-.05.02-.01-.03.18-.07.22-.07.15-.63.21-1.28.36-1.89-.21-.02-.28.03-.28.13,0,.23-.12.28-.35.36-.19.06-.29.09-.41,0-.08-.06-.11-.21-.08-.24.03-.03.15.08.24.09.19.01.42-.26.41-.51,0-.22.2-.38.59-.4.07-.3.24-.57.32-.86-.01,0-.11,0-.13,0-.38.11-.64-.14-.38-.36.12-.1.09-.08.2.03.06.07.18.18.22.18.02,0-.05-.1-.04-.1.07-.28.21-.53.28-.81-.09-.07-.09-.2.01-.25.04-.02.17-.1.15-.18-.01-.1,0-.08.06-.09.08-.31-.03-.61.04-.92-.28-.16-.65-.61-.66-.69,0-.06.01-.1.08-.15.07-.05.1-.19.09-.27,0-.09.03-.27.19-.35.21-.11.32-.05.39.06.11.17-.02.37-.23.35-.1-.01-.21-.03-.25-.01-.05.05.41.34.58.37.08-.32.23-.59.31-.9,0-.01-.02-.02-.01-.03.07-.31.1-.63.17-.94-.05,0-.03-.06-.06-.09-.1-.1-.12-.66-.02-.65.04,0,.19.26.28.37.06-.25.16-.59.21-.84-.12,0-.35-.09-.29-.14.03-.03.07-.08.17-.07.03,0-.05-.06-.03-.05.1-.44.37-.83.47-1.26-.01,0-.06-.06-.07-.08-.12-.11-.14-.12-.05-.19.04-.04.14-.05.18-.04.14-.61.13-1.24.26-1.83-.02,0,.04-.04.02-.04-.1,0-.19.16-.24.2-.18.12-.24-.18-.05-.36.11-.1.21-.19.22-.25.01-.12.14-.11.24,0,.02-.1.11-.22.13-.31-.04-.03-.25-.08-.25-.13,0-.06.17-.17.23-.17,0,0-.01.08-.01.08.31-1.41.69-2.74.96-4.04-.03,0-.13-.11-.17-.12-.21-.05-.25-.11-.05-.19.1-.04.21-.03.24,0,.17-.82.35-1.62.51-2.41-.03.02-.09.08-.12.11-.11.18-.61.12-.66-.06-.04-.15-.1-.14.05-.35.07-.1.11-.24.14-.28.03-.05.12-.18.07-.34-.08-.27-.13-.32.04-.51.23-.27.32-.36.57-.32.07.01.17.14.21.15.1-.55.1-1.11.2-1.65-.03-.03-.02-.08.02-.13.24-1.32.53-2.59.73-3.85-.06.02-.13-.04-.21-.07-.17-.07-.16-.02.01-.27.1-.14.06-.26.15-.24.12-.71.39-1.37.49-2.07,0,0-.03.07-.03.07-.04.02-.2-.08-.2-.12,0-.04.14-.12.18-.12,0,0,.03.06.04.06.12-.78.28-1.53.39-2.3.24.12.41.11.65.21.04-.11.08-.14.09-.22.01-.12.11-.15.21-.19.09-.04.43-.34.8-.57.72-.45.8-.44,1.06-.1.21.27.26.69.05,1.33-.12.34-.13.39-.11.51.51.16.97.39,1.47.52,0-.08.11-.16.19-.14.06.02.09.12.11.18,0,.01.05-.08.05-.07.94.2,1.86.48,2.81.55,0,0-.08-.05-.08-.06,0-.06.13-.21.17-.21.04,0-.03.16-.03.22,0,0,.08.08.08.09,1.81.13,3.65.05,5.48-.21.02-.07.05-.21.11-.22v-.03c.12-.04.2.12.21.22,1.08-.17,2.18-.38,3.26-.65.02-.02.03-.12.05-.14.34-.31.39-.34.46-.1,10.53-2.76,21.26-9.75,31.7-10.58.19.03.36.21.55.24.95.18,1.91.27,2.86.47.94.2,1.87.43,2.81.64.97.21,1.96.32,2.93.53.87.19,1.74.41,2.63.52.52.06,1.06-.04,1.58.01.43.04.85.06,1.28.06.88,0,1.76.1,2.65.07.31-.01.63,0,.94-.04.76-.11,1.47-.43,2.22-.63.86-.23,1.7-.48,2.53-.83.66-.28,1.38-.47,2.02-.79.65-.33,1.28-.69,1.9-1.08.05-.03.12.04.17.03.21-.05.4-.13.61-.19.46-.12.92-.21,1.39-.2.59.01,1.18-.01,1.77.02.36.02.72.12,1,.36.26.23.51.5.77.74.04.03.09.03.13.06.23.16.49.28.72.44.23.15.41.3.68.34.08,0,.15.17.23.18.54.06,1.09-.16,1.64-.21.57-.05,1.1-.19,1.57-.61.19-.17.36-.37.55-.54.44-.39.79-.83.88-1.43.02-.15-.01-.31.01-.45.03-.15.17-.2.28-.29.23-.2.43-.43.71-.47.08-.01.16.11.23.13.2.08.38.17.54.34.2.22.51.32.78.35.3.03.6-.15.9-.17.32-.03.63-.07.86-.31.24-.24.42-.52.67-.75.24-.22.53-.24.83-.29.13-.03.23-.23.36-.26.35-.09.6-.26.8-.6.05-.09.14-.17.15-.27,0-.12-.03-.28-.11-.29-.09-.01-.18.09-.26.21-.09.14-.12.31-.23.42-.22.22-.37.18-.62.04-.14-.08-.33-.02-.49,0-.26.03-.48.17-.72.3-.29.16-.64.19-.93.33-.22.11-.42.26-.65.21-.4-.09-.62-.4-.78-.83-.08-.23-.38-.29-.56-.43-.29-.23-.54-.44-.89-.51-.44-.09-.9-.17-1.36-.13-.3.02-.61.15-.89.32-.25.15-.48.39-.57.67-.1.36.1.72.19,1.06.02.09-.03.2-.02.3,0,.15-.13.29-.15.44-.01.07-.02.08-.07.12-.28.21-.55.35-.87.43-.3.08-.56.24-.86.24-.51,0-.9-.34-1.29-.67-.22-.19-.47-.35-.67-.57-.24-.26-.42-.56-.59-.89-.18-.37-.49-.68-.65-1.06-.27-.64-.66-1.07-1.25-1.33-.47-.21-.98-.3-1.48-.41-.46-.1-.92-.1-1.38-.09-.45.01-.91.05-1.35.26-.39.18-.8.31-1.18.51-.27.14-.56.29-.82.46-.48.31-.91.67-1.41.91-.58.27-1.18.48-1.78.65-.37.1-.72.31-1.09.36-.55.08-1.11-.03-1.65-.01-1.28.05-2.56.24-3.83.11-.54-.05-1.07-.27-1.61-.34-.94-.13-1.9-.16-2.84-.32-.78-.13-1.5-.46-2.23-.79-.54-.25-1.09-.45-1.62-.71-.52-.26-1.09-.43-1.6-.7-.66-.35-1.32-.91-1.99-1.25,1.65-.3,3.36-.35,4.97-.42.02,0,.05-.07.07-.07.63.18,1.23.5,1.87.65.63.15,1.3.02,1.95.06.75.06,1.49.19,2.25.12.39-.04.77-.01,1.16-.05.89.23,1.78.42,2.65.77-.36-.38-.82-.68-1.19-1.04.12-.03.31-.19.43-.23.75-.24,1.49-.48,2.2-.85.62-.32,1.24-.65,1.74-1.19.31-.33.56-.7.86-1.04.04-.05.16-.05.19-.1.1-.22.12-.48.22-.7.21-.44.34-.89.35-1.38,0-.1-.12-.18-.13-.28,0-.01,0-.03,0-.05,0,0,.12-.02.12-.03-.01-.06,0-.15-.02-.21-.02-.05-.08-.08-.08-.13,0-.16-.07-.31-.12-.45,0,0,0-.04,0-.08-.02-.01-.02-.02-.03-.03-.04-.08-.11-.17-.13-.26-.07-.38-.02-.81.26-1.11.16-.17.39-.25.58-.32.4-.15.82-.09,1.22-.05.37.04.71.18,1.03.35.49.25,1,.45,1.54.5.33.03.68-.11,1.01-.08.25.02.5.04.75.04.44,0,.89,0,1.33-.02.37-.02.73-.05,1.07-.24.45-.26.9-.56,1.25-.98.12-.14.16-.34.26-.5.07-.11.2-.18.26-.29.04-.08-.06-.22-.01-.29-.01-.01.12-.05.1-.07-.07-.09-.15-.3-.06-.33.03-.01.15.08.17.04.03-.06.07-.22.21-.23.26-.28.64-.39.99-.56.16-.08.26-.03.37.11.06.08.09.19.15.27.13.19.3.35.42.54.06,0,.14.02.19.04.16.06.19.05.22.17.02.11-.04.21-.1.27.1.15.25.31.34.46.12.2.2.43.33.61.12.16.21.36.35.5.18.19.46.28.7.36,0,0-.09-.07-.09-.07.02-.05.18,0,.19.06,0,.02.02.13.01.15.15.03.32-.13.47-.13-.03-.09-.03-.08.12-.07.19,0,.31-.05.32.02.39-.04.75-.07,1.09-.31.15-.11.34-.2.48-.32.46-.42.85-.96,1.1-1.56.06-.15.01-.35.08-.5.13-.33.49-.52.81-.49.12.01.23.02.35.05.34.07.7.04,1.05.03.19-.01.36-.12.54-.17.33-.08.56-.24.66-.62.08-.28.22-.52.38-.73.01-.02.02.02.03,0-.03-.07.06-.15.1-.2.03-.04.08-.1.16-.09.04-.05.17.01.21-.03.05-.06.03-.19.09-.24.34-.26.71-.29,1.06-.2.13.03.27.12.35.24.06.09.13.15.22.18-.01-.05-.03-.12-.05-.19-.05-.13-.12-.23-.08-.31m-27.97.79c-.12-.01-.31-.04-.32-.09,0-.02-.06-.11-.02-.16.06-.08.1-.02.2.05.07.05.04-.01.05-.03.03-.06.34.12.33.19,0,.07-.11.05-.25.04M20.16,69.03c-.06,0-.08.02-.07-.04,0-.06.03-.17.09-.16.06,0,.07.12.06.18,0,.06-.02.03-.08.03m.52,2.59c-.06,0-.08.02-.08-.05,0-.07.04-.16.08-.14.13.06.12.2,0,.19m-9.48,14.79c0,.06,0,.03-.04.03-.04,0-.04,0-.03-.08,0-.08.04-.18.08-.15.04.03,0,.15-.01.21m3.8-3.21s0,.14,0,.13c-.02,0-.01-.09-.03-.14.04,0,.04-.03.04,0m-.07.98c.11.01.38.31.33.36-.07.06-.37-.13-.37-.23,0-.04,0-.13.03-.13m-.45-.25c.06-.05.15.05.15.14,0,.04-.04.12-.12.12-.14-.01-.13-.16-.02-.26m-.32-.31c.04-.05.03-.08.07-.05.06.05.12.1.05.17-.18.18-.28.08-.12-.12m-2.44,1.81c-.17-.03-.18,0-.17-.25,0-.15,0-.34.03-.33.12.01.33.33.32.44,0,.08.06,0,.2-.01.13-.02.2.12.25.22.11.26-.25.43-.41.2-.04-.06-.11-.24-.21-.26m.25.86c-.14-.21-.21-.35-.08-.34.05,0,.21.01.29.11.15.16.08.2-.04.31-.13.12-.05.1-.17-.08m.75,1c-.35.08-.32.13-.47-.04-.1-.11-.24-.24-.22-.39.02-.2.12-.2.36-.25.33-.07.72.02.7.23,0,.08-.09.19-.03.24.14.14.07.11-.34.21m.42-.92s-.08-.02-.07-.06c0-.04,0-.13.05-.13.04,0,.03.12.02.18,0,.07.04.04,0,0m1.41-.54c-.3.03-.38.23-.26.53.11.28.14.36.04.35-.12-.01-.29-.4-.28-.57.02-.22-.21-.4-.38-.41-.2-.02-.17.13.04.25.09.05.22.1.22.14,0,.1-.38.1-.52-.03-.26-.24-.62-.24-.65.01-.02.12-.21.11-.25-.06-.07-.33.09-.51.52-.49.47.03.59.02.38-.15-.15-.12-.19-.03-.06-.15.11-.1,0-.11-.06-.21-.12-.17-.21-.24-.28-.07-.08.18-.15.15-.29-.04-.12-.16-.16-.16-.08-.23.03-.02.12-.02.21,0,.11,0,.11-.11.15-.21.04-.08.14-.06.16-.02.06.12.69.25.76.17.07-.1.54-.08.59.03.02.05.11.16.21.15.25-.04.49-.05.52.16.02.1-.05.22-.01.22.04,0,.05.06.04.13-.02.21-.44.48-.71.51m.88-1.57c-.05-.06-.09-.02-.03-.05.04-.02.14-.06.16-.01.06.12-.04.16-.12.06m.38,1.11c-.12,0-.19.06-.19.05,0,0-.06-.1-.03-.15.07-.13.42-.06.41.08,0,.07-.04.03-.19.02m0-1.61c-.16-.05-.3.02-.44.12-.2.15-.45.07-.32-.11.04-.05.2-.15.26-.27.09-.19-.04-.24-.14-.44-.14-.3-.03-.45.14-.56.12-.08.17-.07.12.07-.04.12-.05.07.07.1.08.02.25.18.29.29.04.11.11.17.21.21.13.05.25.21.24.34-.03.33-.19.32-.43.25m1.37,2.98c-.11.06-.18.12-.22.09-.13-.1-.09-.36.08-.4.1-.02.18.09.25.17.09.11.07.04-.11.14m.17.93s.02-.03.03-.03l-.03.03m.28-.59c-.05.07-.16.03-.15-.06,0-.04.02-.12.07-.12.13.01.13.11.08.18m.15-.94c.11.05.11.2-.01.25-.06.03.03.07.15.15.18.12.18.31.05.38-.12.06-.44-.32-.41-.5.03-.16.12-.17-.15-.19-.17-.01-.4.07-.54.09-.17.02-.37,0-.54-.1-.27-.16-.3-.37-.13-.49.08-.06.08-.17.11-.53.04-.43.06-.43-.06-.5-.19-.12-.1-.38.1-.36.09,0,.25-.11.31-.18.11-.11.19-.11.16.02-.02.07-.11.17-.05.2.06.04.17.12.26.18.23.15.42.1.44-.07.01-.12.02-.11.19-.05.32.11.43.12.35.53-.07.34-.17.41-.04.46.2.08.15.4-.08.5-.11.05-.16.19-.1.21m46.08-1.77s0,0,.04,0c.04,0,.04-.04.04,0,0,.04-.01.13-.05.13-.04,0-.03-.1-.03-.14m-2.98,1.19c.13-.26.43-.18.4.11-.01.13-.02.25-.17.27-.26.04-.34-.16-.23-.38m-6.25-.82c.12.01.32.18.26.24-.03.02-.13.08-.23.02-.18-.1-.19-.28-.03-.26m-.53-.62c.09-.05.3-.01.29.07,0,.03,0,.17-.1.24-.14.11-.18.04-.23-.06-.08-.15-.06-.2.04-.25m-2.35-.05s.03-.04.04-.06c0,.05.01.14-.03.16-.14.07-.14-.02,0-.11m-.97,1.09s0-.05.04-.03c.07.06.01.21-.09.2-.08,0-.03-.11.05-.17m-.38-2.08c.13.01.22.06.17.14-.04.06-.1.12-.17.05-.1-.1-.08-.2,0-.19m-1.69,1.13s-.06-.05-.06-.09c0-.04,0,0,.04,0,.04,0,.04-.06.04-.04,0,.02.02.11-.02.13m.43.25s0,0,.04,0c.04,0,.04-.04.04,0,0,.04,0,.14-.05.13-.04,0-.03-.1-.03-.14m-.35-2.02c.21-.05.27,0,.18.19-.04.11-.09.22-.2.19-.22-.05-.2-.33.02-.38m-2.46,3.03c.28.03.49.11.57.29.11.27.09.35-.3.31-.31-.03-.27-.09-.27-.39,0-.16-.02-.22,0-.22m-.25-3.9c.08,0,.11-.02.11.05,0,.06-.04.17-.13.16-.08,0-.1-.12-.1-.18,0-.06.03-.03.11-.03m-1.58,2.71s.03.12-.01.11c-.04,0-.03-.1-.03-.14h0s.02-.01.04.02m-.94-2.54s.01-.05.04-.03c.07.05.01.21-.09.2-.08,0-.03-.11.05-.17m-.65,1.11c.03-.31-.01-.33.13-.36.2-.03.43.09.51.4.05.21-.01.2-.19.18-.11-.01-.16.14-.22.2-.16.19-.27-.04-.23-.43m-.83.4s.03-.06.04-.02c.02.04.07.13.03.15-.04.02-.09-.07-.11-.11-.02-.04,0,0,.04-.03m-1.27,2.53c-.19,0-.22.04-.22-.05,0-.08.04-.16.16-.12.09.03.18.15.23.16.22.02.07.02-.17,0m-.07-2.83c.21.25.24.38.04.36-.18-.02-.42-.38-.36-.5.07-.14.12-.1.32.13m-8.26,1.42c-.09-.24-.14-.18,0-.27.15-.1.43-.04.47.15.08.35-.36.46-.47.12m.4.95c-.1-.08,0-.15.13-.25.1-.06.05-.11.08,0,.04.15-.1.33-.21.25m.23.29c-.11-.05-.15-.08-.07-.14.1-.09.21-.06.2.1,0,.09-.08.06-.13.04m.28-1.11s-.03.06-.05.02c-.02-.04-.06-.13-.02-.15.04-.02.08.07.1.11.02.04,0,0-.04.02m.6.66s0,.06,0,0c0-.06,0-.18.01-.18.08,0,.06.14-.01.18m.85.55c-.12-.01-.18-.02-.1-.08.1-.08.29-.05.28.06,0,.06-.11.03-.17.02m.44-.73s-.07-.02-.07-.06c0-.04.01-.13.05-.13.04,0,.03.11.02.18,0,.06.04.03,0,0m.91,1.21c.05.01.12.03.12.05,0,.08-.09.03-.12-.05m.8-4.01s-.04-.04,0-.04c.04,0,.14.01.13.05,0,.04-.1.03-.14.02-.04,0,0,0,0-.04m1.15,1.03c-.06.05-.02.09-.04.03-.02-.04-.06-.13-.02-.16.12-.06.16.04.06.13m1.03.55c0-.06-.02-.08.04-.07.06,0,.17.03.17.09,0,.06-.12.07-.18.06-.06,0-.04-.02-.03-.08m0-.45c.08,0,.13.17.06.21-.04.02-.03-.06-.02-.12,0-.06-.05-.08-.04-.08m.37,1.92c-.18.03-.2.13-.1.33.05.1.12.21.07.25-.06.05-.12-.07-.18-.26-.09-.26-.17-.35,0-.44.21-.12.37-.03.36.09,0,.04-.07.02-.15.04m.45-1.41s.03.12-.01.11c-.04,0-.03-.1-.03-.14.01,0,.02-.01.04.02m-.65-2.51c.07-.06.17.04.11.12-.07.1-.29.07-.28-.04,0-.06.14-.06.17-.08m-.17,1.41c.08-.13.2-.31.32-.38.11-.07.08-.25.21-.23.11.02.03.17.09.27.16.23.24.48.06.61-.15.11-.8.08-.84-.01-.01-.03.09-.12.17-.25m-.52-1.35c.23-.17.28-.1.1.13-.04.05-.12.15-.18.12-.14-.07-.07-.14.08-.25m-.24,3.46s.11-.03.27,0c.33.06.35.25.01.29-.25.02-.43-.17-.28-.29m-.29-2.3c.07.02.11,0,.1.07,0,.06-.03.18-.1.19-.09,0-.1-.09-.09-.2.01-.11,0-.08.08-.05m-.26-.93s.06-.02.08.03c.02.04.01.12-.05.11-.06,0-.07-.1-.07-.14,0-.04,0,0,.03,0m-.08,3.43s.04-.04.04,0c0,.04-.01.13-.05.13-.04,0-.03-.1-.03-.14,0-.04,0,0,.04,0m-.21-.92c-.17-.02-.25-.13-.09-.17.06-.02.17-.09.21-.06.12.09.03.24-.12.23m.06-.81c-.01.11.02.11-.12.1-.2-.02-.27-.1-.12-.22.15-.12.25-.04.24.12m-.22-.51c.07-.06.15.06.14.18-.01.13-.11.17-.22.04-.09-.11,0-.15.08-.22m-.13,2.97c-.04.11-.09.09-.11-.03-.01-.07,0-.14.09-.11.07.02.04.1.02.14m-.13-.5c-.06.05-.07-.04-.1-.09-.02-.04-.05-.03,0-.06.12-.06.21.06.1.14m-.37-4.1c.13-.04.42.05.4.14-.03.28-.42.28-.54,0-.05-.12.04-.11.13-.14m-.14,3.03c.26.16.2.16-.16.13-.17-.01-.17.03-.16-.12,0-.1.01-.25.05-.24.04,0,.14.16.27.24m-.34-.68c.06-.05.09-.04.08.06,0,.04-.03.13-.09.12-.12,0-.09-.1,0-.18m-.15,1.7s.03-.06.05-.01c.02.04.06.13.02.15-.04.02-.08-.07-.11-.11-.02-.04,0,0,.04-.03m-.22-1.54c.06,0,.07-.04.05,0-.06.13-.25.15-.24.02,0-.07.12-.03.18-.03m.03,2.09s0,0-.04,0c-.04,0-.04.04-.04,0,0-.04,0-.13.05-.13.04,0,.03.1.03.14m0,.41c.05.1-.19.21-.28.14-.12-.09-.11-.17.04-.16.08,0,.22-.02.24.02m-.29-.55c-.11-.01-.18-.11-.09-.19.07-.05.14.06.13.16,0,.04.02.03-.04.03m-1.27-3.6c.16-.12.15-.16.27-.09.19.13.21.11.18-.02-.04-.13.24-.38.38-.37.25.02.2.56-.06.61-.1.01-.19-.02-.21.11-.02.25.04.26.21.1.2-.19.56-.1.54.13-.01.13-.14.27-.27.29-.1.02-.29,0-.33-.04-.04-.03.04,0-.03.14-.08.16-.23.07-.33.04-.2-.04-.21-.16-.03-.28.14-.09.05-.04-.08-.16-.07-.07-.11-.24-.17-.25-.26-.03-.25-.05-.05-.21m.09,2.31c-.06-.02-.22.04-.35.02-.21-.03-.28-.23-.15-.33.08-.06.42.01.54.1.12.09.1.26-.04.21m-.16-1c-.04.1-.22.1-.24-.02-.02-.07.06-.03.15,0,.08.02.11-.01.1.03m-.19-1.75s.03.12-.01.11c-.04,0-.03-.1-.03-.14.02,0,.02-.02.04.02m-.14,1.04c.11-.05.23,0,.22.1,0,.05,0,.19-.06.23-.1.07-.14,0-.19-.09-.07-.15-.06-.2.03-.24m-.07,1.99c.13-.06,1.05-.02,1.13.08.06.08-.1.15-.3.32-.25.21-.22.24-.51.03-.08-.06-.24-.05-.3-.08-.12-.07-.12-.3-.02-.34m-.12-1.16c0,.1-.52.16-.71.1-.19-.07-.27-.27-.11-.4.05-.05.19,0,.25.01.17.01.57.22.57.29m-.9-.89c.15-.12.21-.14.19.02-.01.11-.03.21-.17.19-.2-.02-.18-.09-.03-.22m-.08-.84c.18-.24.25-.26.36,0,.05.11.08.21-.11.31-.26.15-.47.11-.45-.03,0-.05.11-.15.2-.28m-.34,1.77c.11-.05.15-.08.25-.01.17.12.23.2.04.34-.18.14-.37.07-.41-.09-.05-.19-.04-.17.13-.24m-3.78-52.82c.08-.03.02-.03.01.11-.01.11.02.15-.05.14-.06,0-.17-.04-.16-.12,0-.08.13-.11.2-.13m-.76-2.61c.06,0,.1,0,.12.07.02.08.02.16-.07.13-.15-.04-.19-.21-.05-.2m-.43-3.44s0-.05.04-.03c.07.05,0,.21-.09.2-.08,0-.03-.11.05-.18m-.82,18.22c.11-.05.15-.03.14.1-.01.14-.13.17-.23.02-.05-.08.03-.09.09-.12m.11,7.86c0,.06-.02.03-.08.03-.06,0-.08.02-.07-.04,0-.06.03-.17.09-.16.06,0,.06.12.06.18m0-1.28s0,.02,0,.04c0-.01,0-.02-.02-.03-.06-.09-.12-.17-.06-.2.12-.06.12.05.07.2m-1.65-13.19c.14-.07.44.04.54.21.14.24,0,.41-.37.34-.28-.05-.25-.13-.26-.34,0-.13.03-.19.08-.21m-1.2,7.87c0-.12.03-.26.25-.53.06-.07.35.08.41-.01.1-.16-.03-.57,0-.67.06-.18.08-.46.22-.58.11-.1.14-.13.29-.1.24.05.22.1.4.25.45.4.5.68.15,1.12-.08.1-.51.15-.56.24-.06.11.32.22.31.36-.05.39-.26.69-.46.71-.17.02-.58.03-.77.21-.15.15-.19.13-.54-.27-.11-.12.3-.58.29-.74m1.66,5.14c-.1.09-.05.12-.16-.06-.14-.23-.22-.26-.12-.39.1-.13.31.02.37.24.03.12,0,.14-.08.21m.09.67c.11-.03.25.16.17.26-.06.08-.23-.05-.22-.17,0-.05,0-.08.05-.1m-.93-.7s.12-.01.11.05c0,.06-.1.07-.14.07-.04,0,0,0,0-.03,0-.04-.02-.06.03-.08m-.31-2.6s-.08-.16-.05-.25c.07-.25.53-.16.62.1.06.18.06.12-.12.17-.24.07-.44.09-.45-.02m-.06,6.89c.12-.06.18.09.16.26,0,.1.03.11-.06.08-.14-.04-.23-.28-.1-.35m-.07-2.01c.1-.08.14.01.12.16,0,.08.04.12,0,.11-.08,0-.18-.22-.12-.27m.2-3.52s-.03.06-.04.02c-.02-.04-.06-.13-.02-.15.04-.02.08.07.11.11.02.04,0,0-.04.03m-.89,1.02c.06-.02.12-.03.17.02.09.09.15.14.03.25-.1.1-.17.03-.24-.04-.12-.12-.11-.19.04-.24m.06,3.6s-.13,0-.13-.05c0-.04.09-.03.14-.02.04,0,0,0,0,.04,0,.04.04.04,0,.04m-.47-3.97c.15-.12.13-.14.11.06-.02.2-.12.27-.23.1-.05-.08.05-.1.12-.16m-.2,3.69c.07-.16.15-.11.13.08,0,.1-.01.24-.05.24-.1-.01-.12-.22-.08-.32m.15,4.49c.14-.23.34-.43.45-.35.03.03-.07.19-.14.28-.12.15-.16.24-.03.39.14.15.16.12.06.32-.14.26-.26.32-.45.07-.17-.21-.08-.39.11-.72m.32,1.97c-.09,0-.1-.23,0-.27.04-.02.05.08.07.13.05.09.04.15-.06.14m-.33,1.18c-.05.07-.05.13-.08.13-.11-.01-.15-.31-.05-.38.15-.1.24.09.13.25m-.71-4.48c-.1,0-.14-.06.07-.38.09-.15.25-.19.28-.19.08,0,.04.98-.04,1.05-.03.03-.08-.15-.11-.26-.03-.11-.16-.22-.2-.23m-.47,3.88c.07,0,.08-.02.08.05-.01.13-.19.11-.23-.03-.01-.05.08-.03.15-.02m0,.89c.3-.3.32-.33.31.05,0,.31.05.26.29.28.19.02.22.13.23.23.01.12-.01.23-.19.17-.11-.04-.33-.21-.54-.24-.31-.04-.43-.05-.43-.18,0-.08.21-.2.33-.32m1.15,4.58c.08.06.1,0-.01.1-.14.12-.33.09-.31-.08,0-.06.12-.07.18-.09.06-.02.09.03.15.07m.06-1.38c.17-.05.2-.06.08.05-.07.06-.14.12-.2.05-.06-.07.02-.07.12-.1m-1,2.56c-.14-.01-.14-.11-.13-.22,0-.08-.04-.25,0-.27.09-.05.53.41.57.58.02.08-.03.09-.09.12-.14.07-.15.07-.13-.1,0-.11-.08-.09-.22-.11m.01-.96s.09.07.1.11c.02.04,0,0-.04.03-.04.02-.03.06-.05.02-.02-.04-.06-.13-.02-.15m.38.53c0-.1.11-.14.17-.14.05,0,.08.06.12.12.13.16.14.2-.06.19-.15-.01-.24-.02-.23-.17m-.32-.87c-.13-.07-.17-.09-.16-.25.01-.15-.1-.21-.19-.27-.08-.05-.06-.19-.04-.26.03-.12-.05-.04-.32-.09-.13-.02-.09-.43.05-.53.06-.04.15-.15.24-.15.13-.01.24.09.21.36-.04.42,0,.54.29.42.17-.07.32-.05.44.08.32.35-.1.91-.51.68m-.58.26s.06-.02.12.05c.14.17-.04.4-.19.25-.11-.11-.03-.25.07-.3m-.16-.65c-.11-.01-.12,0-.03-.07.06-.05.21,0,.2.1,0,.04-.11-.01-.17-.02m.35,2.72c.06,0,.08-.01.08.05-.01.13-.19.11-.23-.03-.01-.05.08-.02.15-.02m.57-3.31c-.1,0-.1-.01-.06-.12.07-.14.21-.1.19.06,0,.08-.1.06-.14.06m-.92-2.74c.1-.08.16-.09.15.02,0,.06-.03.17-.09.17-.12-.01-.14-.13-.07-.19m-.06,1.42c.11-.09.09-.1.08.06,0,.08-.04.19-.09.17-.11-.05-.07-.17,0-.23m-.39-.63c.13-.11.18-.09.14.07-.02.09-.06.23-.12.22-.12,0-.12-.21-.02-.29m-.19,1.82c-.17-.01-.17,0-.02-.11.05-.04.15-.16.23-.15.08.01.09.06.04.08-.05.01.02.12.01.18,0,.06-.18.01-.26,0m.04,3.52c-.15-.2-.19-.27-.04-.48.05-.07.04-.27.08-.4.1-.35.38-.28.54.1.18.44.2.84-.05.91-.1.03-.24-.01-.24.03-.01.13-.14.02-.28-.17m.24.61c.19-.2.39-.31.56-.25.23.1.48.41.45.72-.02.24-.13.26-.35.34-.23.09-.31.2-.55.01-.32-.26-.3-.63-.11-.82m.68,1.88c.21.02.34.08.23.17-.06.04-.52-.16-.51-.23,0-.03.16.04.28.06m-.2-.82c.15.01.25.17.14.27-.07.06-.08-.03-.12-.12-.08-.17-.14-.16-.02-.15m-.5,1.35c.07.02.13.02.14.08.02.06,0,.14-.09.11-.07-.02-.09-.15-.1-.21-.01-.06-.03,0,.05.02m-.64,2.94c.1-.08.17-.09.15.02,0,.06-.03.17-.09.17-.12-.01-.14-.13-.07-.19m-.18.89c.07-.02.1-.06.13-.02.07.09-.17.35-.26.29-.11-.08-.01-.22.13-.26m-.3,1.67c-.07-.03-.11-.07-.03-.11.06-.03.09.07.11.1.06.07.03.05-.08,0m-.32-.57c.02-.19-.02-.27.04-.26.12.01.32.15.31.25,0,.04-.18.09-.29.16-.1.06-.09.28-.2.25-.15-.04.12-.25.13-.4m.22,1.24c0,.07,0,.04-.04.04-.04,0-.04.04-.04,0,0-.04-.02-.14.02-.17.04-.02.07.06.06.13m-.09,1.35c0,.08.02.08-.09.05-.23-.06-.25-.25-.02-.24.12.01.11.11.1.19m-.37-1.38c.05,0,.19-.01.23.05.06.09-.02.14-.13.23-.07.06-.09.06-.12.03-.1-.08-.09-.32.02-.3m-.42,9.3s0,.03.01.04c-.04-.03-.15-.06-.14-.1,0-.04.1-.03.14-.02.04,0,0,.02,0,.08m0-.75c0-.06-.01-.08.05-.08.07,0,.16.04.14.08-.06.13-.2.13-.19,0m.12-.62c-.07.07-.09.23-.06.27.03.04-.03.02-.12-.06-.08-.08-.08-.19-.07-.19,0,0-.08-.14-.03-.2.05-.07.22-.04.27-.03.17.01.15.09,0,.22m-.01,1.95c.1.23.05.27-.17.14-.21-.12-.28-.26-.11-.39.13-.09.2.04.28.24m-.67-1.4c.1-.08.09-.08.16.08.05.13.11.22-.01.29-.08.05-.18-.01-.21-.03-.07-.05-.02-.27.06-.34m-.23.71c.01-.11.07-.06.15-.03.12.06.12.09-.02.12-.05.01-.14-.02-.13-.1m.13.94c0-.06-.02-.09.01-.11.1-.05.29.1.22.19-.08.11-.25.05-.23-.08m.51.97s-.04.04-.04,0c0-.04-.02-.14.02-.17.04-.02.07.06.06.13,0,.06,0,.04-.04.04m.26-.46c-.14-.05-.25.03-.29.15-.05.15-.27.23-.33.1-.02-.04.11-.13.19-.21.22-.21.54-.3.62-.11.06.15-.02.13-.18.07m1.44-.57s0,0-.04,0c-.04,0-.04.02-.03-.04,0-.06.04-.14.08-.11.04.03,0,.13,0,.17m.84.86c-.05.19-.19.21-.18.02.01-.11.03-.21.14-.2.1,0,.06.09.04.18m.32-.09c-.08,0-.07,0,.01-.07.03-.02.09-.1.13-.07.07.05-.04.15-.14.14m1.03-.13s0,0-.04,0c-.04,0-.04.04-.04,0s0-.13.05-.13c.04,0,.03.1.03.14m1.46-2.22c.05,0,.17-.04.19-.01.06.07-.12.22-.2.17-.1-.07-.1-.17,0-.15m.08.93c-.05-.18-.1-.19,0-.18.18.01.39.09.39.18-.01.14-.36.13-.4,0m.47-.22c-.06.05-.02.09-.04.03-.02-.04-.06-.14-.01-.16.12-.06.16.04.06.13m.36.4s0,.03,0,.04c0-.01,0-.02-.02-.03-.06-.09-.12-.17-.06-.2.12-.06.12.04.08.2m2.22-.86s-.08-.07-.11-.11c-.02-.04,0,0,.04-.03.04-.02.02-.05.04-.01.02.04.06.13.02.15m.25.75c-.04.1-.06.1-.08-.01,0-.04,0-.12.08-.12.07,0,.03.08,0,.13m.43-1.62c-.05.05-.21-.14-.21-.23,0-.03.02-.12.07-.12.11.01.21.29.14.35m.44,1.75s-.03.06-.04.01c-.02-.04-.06-.13-.02-.15.04-.02.09.07.11.11.02.04,0,0-.04.03m1.87.35c-.09.06-.07.07-.21-.15-.19-.29-.25-.37-.16-.41.03-.02.19.06.31.06.21,0,.33-.02.33.22,0,.17-.2.24-.26.28m.62-.58c-.06.08-.17.11-.16.02,0-.04-.02-.14.02-.17.1-.05.2.06.14.14m.92-.98c-.18-.05-.28-.11-.18-.19.08-.07.25-.09.36.04.14.17.04.21-.18.15m.07-1.15c-.2.08-.15.04-.1-.23.03-.15,0-.17.08-.15.18.05.2.3.01.38m.03-1.04c-.09,0-.08.04-.07-.07.01-.11.03-.21.12-.18.07.02.07.14.06.2,0,.06-.04.04-.11.05m-.13-.95c.2-.15.3-.13.28.1-.02.21-.35.4-.47.26-.11-.13.01-.22.19-.36m-.23,1.05c.12-.04.34.14.32.29,0,.04-.08.12-.22.1-.18-.03-.19-.15-.2-.27,0-.09.03-.1.1-.12m-.08.6c.05.17.02.17-.05.15-.09-.04-.22-.34-.13-.33.03,0,.14.06.18.19m-.18-.93c0,.06.02.08-.04.07-.06,0-.17-.03-.16-.09,0-.06.12-.06.18-.06.06,0,.03.02.03.08m-.26-.6c.12.03.2,0,.2.04,0,.03-.08.11-.2.1-.12-.02-.17-.12-.17-.17,0-.06.04,0,.17.04m-.12,2.35c.18-.13.3.16.17.38-.11.19-.16.23-.21.05-.06-.19-.09-.35.04-.44m-.09-1.9s0,.13-.05.13c-.04,0-.05-.11-.07-.16,0,0,.01.02.03.02.07,0,.08-.03.08,0m-.15-.91c.13.01.18.04.11.14-.07.09-.29,0-.28-.12,0-.06.11-.02.17-.01m-.33,2.84c-.12,0-.18-.11-.09-.18.06-.06.14.06.13.16,0,.04.02.03-.04.03m0-1.52c-.05.1,0,.11-.06.04-.1-.11-.19-.43-.11-.42.14.01.23.26.17.38m-.55-.97c.12-.2.16-.24.37-.11.35.22.2.73-.23.74-.21,0-.23-.09-.25-.22-.04-.21,0-.23.12-.41m-.17,1.31s.03,0,.07,0c0,.05-.01.11-.04.1-.04,0-.03-.08-.03-.1m0,1.89c.21-.21.46-.2.66.05.09.11.24.12.29.13.14.01.08.15-.11.35-.14.14-.22.31-.48.28-.54-.05-.69-.48-.35-.82m-.29-2.41s.06-.02.08.03c.02.04.02.11-.05.11-.06,0-.07-.1-.07-.14,0-.04,0,0,.03,0m.1.64s0,.01,0,.08c0,.06.03.08,0,.07-.04,0-.13-.03-.13-.09,0-.06.1-.07.14-.06m-.13.84s.12-.03.11.01c0,.04-.1.03-.14.03,0-.01-.02-.02.02-.04m0,2.32s.11-.13.2-.12c.19.02.22.27.06.38-.2.14-.45-.11-.26-.26m-.21-4.42c.11.01.21.14.15.22-.04.06-.1.11-.17.04-.11-.11-.08-.27.02-.26m-.09.62c.09-.08.09-.1.08.02,0,.06-.01.17-.05.17-.09,0-.1-.13-.03-.18m.03,1.02s.04.04,0,.04c-.04,0-.14.01-.13,0,0-.02.09-.01.14-.03m-.12.77c.12-.1.25-.06.3.13.1.35-.18.47-.36.15-.11-.19-.02-.22.06-.28m-.16,1.15c.07,0,.07-.04.05,0-.06.13-.25.15-.23.02,0-.07.12-.03.18-.03m-.27-.57s-.05.04-.14-.05c-.18-.2-.17-.33.03-.25.2.08.21.22.11.3m-.89-2.66c.13-.15.33-.11.51.11.1.12.15.17.04.22-.07.03-.27-.04-.42-.04-.32-.01-.33-.06-.14-.28m-.06.5c.06-.02.15.11.22.17.07.06.23-.03.34-.04.29-.03.37.24.21.47-.16.24-.39.39-.58.33-.24-.08-.41-.87-.2-.93m-.24,1.33c.07,0,.08,0,.07.08-.02.18-.21.15-.23-.04,0-.07.09-.05.16-.05m-.77-.01c.13-.09.26-.09.25.02,0,.04,0,.16-.06.21-.1.07-.15-.01-.23-.11-.09-.11-.07-.04.04-.12m-.05.55c.26.22.25,1-.03.87-.16-.08-.24-.23-.1-.44.14-.21.2-.23-.03-.37-.2-.12-.25-.37-.07-.35.08,0,.14.23.22.3m-.32-2.2s.03.12-.01.12c-.04,0-.04-.1-.03-.14.01,0,.02-.02.04.02m-.07,1.02c.08,0,.09.04.02.08-.04.02-.12.02-.12-.05,0-.06.08-.03.1-.03m.02,1.93c.08.12,0,.1-.04.24-.04.15-.07.14.02.27.07.1.07.06.2.04.16-.02.35-.1.42-.03.06.06.09.24.17.29.12.07.21.15.19.38-.02.25-.1.37-.26.38-.1,0-.3-.05-.39-.1-.11-.07-.12-.07-.22-.02-.36.15-.77-.46-.54-.81.13-.21.23-.62.09-.65-.06-.01-.16.03-.21.02-.1-.02-.17-.21-.07-.25.03-.01.24.14.41.17.14,0,.16-.06.24.07m-.33-.62c0,.12.02.14-.1.18-.1.03-.23.12-.26.1-.07-.05.02-.29.11-.41.11-.14.24-.06.25.14m-.37-.44s.11.01.1.05c0,.04-.08.03-.1.03-.01,0,.01-.03,0-.07m.12-2.09s0,.05.07.05c.06,0,.08-.01.07.05-.01.1-.04.14-.12.06-.06-.05-.02-.15-.02-.17m-.02,1.1c0,.08-.04.19-.09.17-.13-.06-.09-.18.04-.21.08-.03.06-.07.05.04m-.1-.61c.06,0,.08-.02.07.04,0,.06-.03.17-.09.16-.06,0-.07-.12-.06-.18,0-.06.02-.03.08-.03m-.39,1.31s.09,0,.13.08c.08.11.08.16-.03.13-.14-.04-.23-.22-.1-.21m-.06.83c.13.3.1.4-.19.38-.1,0-.1-.33.03-.48.11-.12.09-.06.16.1m-.35-2.66s.04-.06.04-.04c0,.02.03.11-.02.13-.04.02-.07-.05-.06-.09s0,0,.04,0m-.83-.42s.07-.02.14.04c.1.09.17.15.1.22-.05.04-.17-.02-.23-.06-.12-.06-.12-.15,0-.21m.08.93c.16-.45.25-.58.45-.4.08.07.27.08.36.13.15.08.12.33-.04.32-.1,0-.01.3.08.53.03.07.12.21.14.39,0,.1-.09.26-.09.36,0,.5-.49.22-.55.07-.1-.21-.11-.22-.27-.24-.11-.01-.3-.09-.32-.12-.08-.15.13-.7.25-1.03m0,1.92c0,.06.02.08-.04.07-.06,0-.17-.03-.16-.09,0-.06.12-.06.18-.06.06,0,.04.01.03.08m-.61.15s0,0,0,.01c-.08.27-.09.35-.23.28-.13-.06-.11-.23.01-.22.04,0,.15-.03.22-.08m-.13-.34s-.06-.13-.02-.15c.04-.02.03.06.02.12-.01.13.05.14,0,.03m-.08-1.11s0-.13.05-.13c.04,0,0,.11-.05.22-.04.09.07.26.08.37.02.16-.11.19-.21.19-.1-.01-.17-.06-.13-.2.03-.1.03-.12,0-.15-.1-.07-.02-.18.1-.17.06,0,.16-.1.16-.14m-.37-1.68c.06,0,.08-.02.07.04,0,.06-.03.17-.09.16-.06,0-.07-.12-.06-.18,0-.06.02-.04.08-.03m-.32.57s.13-.13.17-.22c.05-.15.1-.16.2.14.09.26.01.36-.06.43-.08.08-.17.17-.31.01-.16-.18-.13-.38,0-.36m-.19,1.65s.12-.06.25-.04c.22.02.31.01.29.21-.02.2-.1.18-.29.16-.25-.02-.39-.21-.25-.33m.07,1.43c0,.06.02.08-.04.07-.11-.01-.18-.11-.09-.19.09-.08.14,0,.13.12m.14-2.3c0,.07,0,.08-.12.07-.22-.02-.26-.05-.06-.15.2-.1.18-.05.17.08m-.41-1.08c0-.06.08-.03.1-.03.08,0,.09.05.02.08-.04.02-.12.01-.11-.05m.04.63c.06,0,.08-.03.08,0,0,.04,0,.13-.05.13-.04,0-.05-.11-.07-.16,0,0,.01.02.04.02m-.29,1.58s.03-.05.05,0c.06.12-.05.21-.14.1-.05-.06.03-.07.09-.1m-.22,1.03c-.2.04-.22.25-.03.43.13.13.22.17.13.33-.13.24-.03.32.34.21.25-.08.35-.16.45.03.13.25.22.2.21-.12-.01-.18,0-.28.12-.27.24.02.37.28.23.46-.11.14-.12.06-.03.14.08.08.04.05.2-.03.11-.06.14-.08.15-.13,0-.05.23-.09.26-.16.04-.08-.08-.23-.22-.34-.24-.17-.39-.39-.27-.45.04-.02.2.2.32.34.12.14.32.34.45.4.33.18.36.34.06.64-.18.19-.27.22-.42.19-.12-.03-.13.08-.17.14-.08.16-.3.06-.41-.16-.11-.21-.35-.28-.51-.14-.06.05-.28.11-.54.1-.26-.02-.58-.12-.72-.1-.24.03-.34.07-.28-.11.06-.15.14-.21-.06-.45-.28-.34-.29-.37-.07-.46.15-.07.24-.16.13-.31-.14-.19-.44-.23-.68-.1-.15.09-.06.26-.06.55-.01.33-.09.29-.3.23-.08-.02.03-.64.11-.63.15.01.01.02-.21-.12-.19-.11-.38-.51-.34-.6,0,0,.15-.02.18-.08,0,0-.16-.08-.16-.08.13-.24.51-.29.85-.25.44.05.56.08.48.35-.11.36.11.54.36.3.08-.08.22-.04.29.03.05.05.13.19.2.18.19-.01.18,0,0,.05m-.24-.84s.11-.03.13.02c.02.04-.05.07-.09.06-.04,0,0,0,0-.04,0-.04-.06-.04-.04-.04m.16-1.71c.05-.03.07-.05.11,0,.11.12,0,.21-.15.12-.09-.06-.03-.08.04-.11m-1.1-.03c.22-.05.21-.11.23.02.03.17.38.32.47.21.07-.1.26.14.38.45.08.2.17.29-.13.5-.17.12-.4.09-.46.06-.06-.03-.13.06-.21.12-.13.11-.23.13-.48-.01-.21-.12-.24-.13-.36-.08-.23.1-.6-.03-.58-.16,0-.06.04,0-.02,0-.06,0-.21-.12-.24-.06-.06.11-.14.18-.13.07,0-.03-.04-.22.06-.3.09-.09.28-.17.29-.28.01-.16.07-.2.26-.3.33-.16.31-.19.53.09.2.25.41.33.51.19.04-.05-.12-.12-.24-.25-.11-.11-.05-.15-.11-.29-.06-.13.11.06.24.03m-.92-1.16c.02-.15,0-.18.15-.2.38-.06.63.45.33.7-.23.19-.51-.13-.48-.5m.37.9c-.01.11-.09.12-.15.02-.02-.03-.08-.12-.04-.17.08-.11.2,0,.19.16m.46-2.27c-.04.13-.06.22-.14.23-.08.01-.16.24-.26.42-.18.33-.23.27-.54.21-.26-.04-.43-.04-.43-.18,0-.09.13-.15.17-.15.12.01.28-.19.24-.27-.02-.04-.05-.02-.13-.03-.08,0-.22-.12-.24-.19-.02-.08-.04-.04-.2-.04-.23,0-.35-.12-.34-.34.01-.23.07-.15.2-.03.19.16.3.11.56-.09.25-.2.34-.31,1.28.14.01,0-.13.19-.17.31m.13-1.05c.08.15.14.1,0,.14-.08.02-.16.17-.24.22-.11.08-.17,0-.25-.08-.16-.16-.12-.39.08-.37.14.01.2.08.21-.03.02-.19.06-.11.19.12m-.07-3.31s.04-.11.15-.19c.26-.21.44-.07.19.15-.18.16-.35.17-.34.04m.73,1.07c-.09-.03-.25-.03-.32-.04-.17-.02-.2-.12,0-.26.22-.17.42-.04.42.22,0,.19.05.14-.1.08m.03-.69c-.13-.19-.16-.16-.08-.31.03-.05.1-.16.2-.15.13.01.13.11.12.22,0,.08.14.17.16.24.06.21-.26.21-.4,0m.5-.32s-.13,0-.13,0c0-.02.09-.02.14-.03,0,.04.04.04,0,.04m-.13-1.47s0,.14,0,.13c-.02,0-.02-.09-.03-.14.04,0,.04-.03.04,0m-.25.14c-.08.1-.23,0-.15.1.08.12.06-.03.2-.06.12-.03.15.02.25.13.09.1,0,.08-.03.21-.04.25-.03.34-.27.34-.29,0-.4-.22-.37-.51,0-.1-.12-.11-.17-.14-.12-.06-.06-.26.06-.43.1-.15.32-.19.5-.04.12.11.15.21,0,.4m.49-2.35c-.15.05-.2.07-.33-.03-.09-.07-.2-.03-.24-.01-.08.04-.1-.09-.02-.16.03-.02-.05-.22-.02-.37.11-.56.24-.57.51-.55.28.03.43.16.29.3-.06.06-.03.13.03.4.04.21.08.4.08.41,0,.01-.2-.03-.31,0m.53-1.71c-.12.19-.19.17-.39-.08-.19-.25-.2-.41-.03-.29.07.04.2.16.34.15.26-.02.23-.02.07.22m.19-2.73c-.01-.12-.12-.26-.16-.26-.03,0-.12-.02-.12-.09,0-.06.1-.07.13-.06.08,0,.44.47.43.59-.02.19-.26.03-.29-.18m.78-.32c-.03-.11-.16-.16-.29-.14-.13.02-.24.04-.29-.07-.08-.18,0-.2.07-.26.1-.08.41-.08.44.04.02.07,0,.16.12.16.16,0,.25.01.29.23.07.44-.25.47-.34.04m.2-4.33c-.15.06-.23.1-.4.03-.16-.06-.28.02-.39.07-.15.06-.14,0-.11-.35.02-.2-.1-.31-.14-.34-.04-.03.01-.18.02-.24,0-.09.05-.14.2-.06.22.12.19.16.09-.06-.1-.24.12-.51.29-.39.12.08.26.56.24.96,0,.16.16.27.32.23.17-.05.1.07-.12.16m.35-.58c-.11-.17-.18-.25-.11-.32.1-.08.14.08.11.28,0,.02,0,.04,0,.05,0,0,0-.01,0-.02m.78-2.49c-.3-.06-.39.06-.27.22.07.09.14.2.09.22-.04.02-.11-.12-.15-.24-.04-.11-.27-.17-.4-.24-.23-.14-.2-.27-.1-.35.1-.09.42-.07.7.11.29.19.35.32.13.27m-.41-1.24c.11-.05.27.1.2.2-.06.08-.24-.02-.23-.12,0-.03-.01-.05.03-.08m.27.36c.09-.08.09-.1.08.01,0,.06-.01.17-.05.17-.09,0-.1-.13-.03-.18m.32-1.53c-.02.07-.03.11-.11.1-.08,0-.22-.03-.22-.1,0-.1.09-.1.24-.08.15.01.12,0,.09.09m.04-1.41c-.05-.06-.09-.02-.03-.05.04-.02.14-.06.16-.01.06.12-.04.16-.13.06m.13-.89c-.15.38-.21.47-.58.49-.35.02-.5.23-.36.43.06.08,0,.11-.05.1-.04,0-.19-.01-.18-.05,0-.04,0-.09-.15-.11-.32-.03-.45-.16-.43-.78,0-.26-.02-.6-.04-.76-.02-.26.03-.4.21-.57.1-.1.11-.22.26-.24.16-.01.2.08.33.16.15.09.2.37.26.42.06.04.23.1.34.17.11.08.38.12.48.21.17.17.02.24-.09.52m.31,4.94c-.14-.04-.23-.35-.1-.42.13-.06.18.09.16.3-.01.14.04.15-.06.12m-.04-9.28c-.07-.09-.03-.23,0-.28.08-.16.33-.11.39.11.03.12,0,.29.05.31.17.08.12.11-.08.1-.1,0-.15.02-.15-.03,0-.05-.13-.13-.2-.22m.46,5.79c-.03.06,0,.09-.04.07-.09-.07-.13-.2-.02-.25.12-.06.13.05.06.18m-.04,1.61c-.16.04-.26-.11-.13-.22.03-.02.1-.13.17-.12.17.02.14.29-.04.34m.4-2.83c.13-.02.13-.05.17.09.06.2-.05.56-.19.54-.18-.02-.39-.65-.22-.64.03,0,.15.03.24.01m.1-4.21c-.13.13-.12.17-.16.03-.02-.06-.05-.18.02-.23.17-.12.29.05.14.2m.24-4.99s-.23.03-.36.09c-.3.14-.4.1-.4-.51,0-.45.11-.5.31-.74.29-.35.5-.61.71-.55.25.07.21.32-.04.8-.25.48-.22.61-.11.74.08.1,0,.24-.11.17m.15,5.38c0-.06-.04-.08,0-.08.04,0,.13.03.13.09,0,.06-.1.06-.14.06-.04,0,0-.01,0-.07m.13.62c-.1-.08-.11-.07.03-.17.09-.06.16-.1.19,0,.04.15-.11.25-.22.17m.32-4.16c-.06.25-.13.32-.11.08,0-.1-.03-.25,0-.27.12-.1.15,0,.11.19m.15-1.54s-.03-.12.01-.12c.04,0,.03.1.03.14-.02,0-.02.02-.04-.02m.22,3.02c-.11,0-.12-.06-.02-.14.08-.06.21,0,.2.13,0,.06-.11.02-.17.01m.23-10.5c-.05.21-.2.27-.18.07,0-.08-.04-.21,0-.24.12-.1.22,0,.19.17m-.06-1.67c-.02.17-.12.06-.2-.15-.04-.12-.2-.21-.27-.26-.15-.13-.08-.29.07-.4.09-.06.21-.16.47,0,.41.24.37.39.16.58-.1.08-.24.2-.24.25m.43,2.29c-.13-.01-.13.05-.03,0,.04-.02.13-.06.15-.02.02.04-.06.03-.12.02m.2,3.87c-.08-.19-.12-.13,0-.23.05-.04.12-.16.17-.16.11,0,.18.31.17.48-.02.17-.26.09-.33-.09m.34-11.44c-.18-.09-.22-.19-.05-.24.17-.05.38.02.36.19-.02.19-.12.15-.32.05m.69-2.79c-.16-.04-.17-.08-.03-.18.06-.04.16-.14.2-.11.1.08-.04.33-.17.29m1.15,10.02c-.02.23-.08.19-.09-.05,0-.11,0-.22.08-.21.07,0,.03.13.02.26m-.09-10.95s.01.14,0,.13c-.02,0-.02-.09-.03-.14.04,0,.04-.04.04,0m-.41,2.47s-.02-.04-.04-.08c-.02-.04-.06,0,0,0,.06,0,.18.01.17.05,0,.04-.1.03-.13.03m.09,7.43s-.04.02-.05-.03c-.01-.05,0-.12.05-.1.09.04.08.13,0,.12m.25,2.28c-.11-.2-.17-.27-.06-.32.11-.06.39.11.42.28.05.31-.2.33-.36.05m.34-8.4c-.13-.07-.18-.38-.04-.5.17-.14.25-.04.23.18-.03.27-.05.39-.19.32m4.53,11.56c-.21-.02-.27-.19-.09-.31.15-.1.23.03.21.22,0,.1.01.11-.12.1m6.12-.83c-.06,0-.08.02-.07-.04,0-.06.03-.17.09-.16.06,0,.06.12.06.18,0,.06-.01.04-.08.03m1.31.38c0,.06,0,.04-.04.03-.04,0-.04.02-.04-.04,0-.06.01-.17.05-.17.04,0,.03.11.02.17m-1.8-10.02s-.01-.01-.02-.02c-.05-.02-.08.02-.06.07.01.02.04.04.06.03-.18.75-.39,1.61-.65,2.63-.16.63.75.85.22,1.23-.15.11-.28.21-.4.3.02-.08.02-.14-.02-.17-.02-.02-.06-.05-.08-.08-.06-.05-.25,0-.31.08-.06.08.02.28.13.32.03.01.05.01.07.02-.22.17-.42.31-.6.42-.01-.08-.1-.08-.14.02-.01.03-.01.05-.01.06-.49.28-.94.38-1.83.36,0-.06-.01-.08-.04-.08-.04,0-.07.04-.08.07-.08,0-.16,0-.24,0-.46-.02-.12-.33.12-.73,0,0,0,0,0,0,.03,0,.05-.03.04-.04,0,0,0-.01-.01-.01.08-.15.14-.31.14-.47,0-.01,0-.03,0-.04,0-.04,0-.08-.02-.12-.91-3.18-1.33-4.38-1.98-6,0,0,0,0,0,0,.05,0,.09-.18.08-.3-.01-.16-.07-.29-.18-.42-.07-.08-.11-.11-.2-.11-.02,0-.03,0-.04,0-.34-.84-.76-1.85-1.33-3.27-.25-.64-1.29-.66-.76-1.09,1.58-1.29,1.8-1.34,3.83-1.33.69,0-.29.67-.16,1.35.72,3.74-.12,4.13,1.84,7.4.78,1.29.56-1.4,1-2.84.7-2.3.96-2.86,1.36-4.3.08.04.18-.03.16-.15,0-.07-.05-.11-.09-.11.12-.43.25-.94.4-1.6.15-.64-.63-.96-.09-1.34,1.61-1.15,1.76-1.47,3.73-1.33.85.06-.34.6-.7,1.56-1.94,5.21-2.17,6.11-3.13,10.04m9.1-8.63c.11.44.12.63.56.72,1.18.25,1.29-.47,2.46-.13.47.14.82.2,1.1.33.02.04.03.08.06.11.04.06.1.11.12.11.03,0,.07-.01.1-.05.18.16.31.39.41.78.49,1.85.28,2.06-.4,3.85-.71,1.86-.64,2.2-2.31,3.28-2.67,1.73-2.91,2.69-6.02,2.02-1.76-.38-1.31-1.82-.6-3.47.41-.94.96.4,1.98.26,1.31-.17,1.35-.2,2.5-.84.79-.44.8-.52,1.24-1.31.39-.7.45-.77.31-1.55-.08-.44-.19-.62-.63-.72-1.18-.25-1.29.47-2.46.13-1.03-.3-1.46-.24-1.8-1.26-.15-.46-.23-.79-.24-1.08,0,0,.02,0,.02,0,.02-.01.01-.03,0-.05,0,0-.01,0-.02,0-.02-.62.25-1.03.65-2.02.04-.1.08-.2.12-.29.03,0,.06-.02.09-.04.06-.04.05-.13,0-.18.54-1.39.59-1.71,2.08-2.7,2.37-1.58,2.56-2.53,5.34-1.91,1.58.36,1.02,1.62.5,3.16-.26.76-.62-.1-1.51-.13-1.27-.04-1.32.09-2.43.71-.68.38-.65.51-1.04,1.18-.29.49-.31.54-.17,1.09m16.11-6.02c-.26.76-.69-.22-1.63-.26-1.27-.05-1.27.28-2.38.9-.68.38-.67.43-1.07,1.1-.29.49-.34.52-.2,1.07.11.44.12.6.57.69,1.18.25,1.28-.42,2.44-.08,1.03.3,1.4.25,1.68,1.29.5,1.85.4,2.02-.28,3.82-.68,1.8-.7,2.09-2.22,3.09,0,0-.02,0-.02.01,0,0,0,0,0,0-.04.03-.08.05-.13.08-.39.25-.72.49-1.02.71,0,0-.02.01-.02.02-1.75,1.29-2.29,2.01-4.93,1.44-1.76-.38-1.39-1.93-.68-3.58.41-.94,1.08.53,2.09.39,1.31-.17,1.32-.32,2.47-.97.79-.44.86-.46,1.29-1.25,0,0,0,0,0-.01.06.09.13.17.16.18.03,0,.05-.12.03-.25,0-.06-.03-.12-.06-.16.24-.49.19-.63.07-1.31-.08-.44-.11-.64-.55-.73-1.19-.25-1.3.5-2.46.15-1.03-.3-1.37-.29-1.7-1.31-.5-1.5-.37-1.69.22-3.15.74-1.85.72-2.07,2.38-3.18,2.37-1.58,2.58-2.62,5.36-1.99,1.58.36,1.13,1.75.6,3.29m10.23,6.94s-.05.02-.07.04c-.03-.05-.03-.06-.06-.01,0,.01,0,.03,0,.04-3.83,1.94-3.88,2.41-8.25,2.87-1.09.12.55-.98.7-2.07.74-5.36.76-5.37,1.12-10.77.06-.86-1.04-1.19-.38-1.75,1.59-1.35,1.94-1.79,3.97-1.36,1.06.23-.37,1.05-.53,2.12-.67,4.76-.76,4.75-1.15,9.55-.01.15.15.28.3.24,1.63-.44,1.69-.35,3.18-1.16,1.17-.63,1.36-2.89,1.98-1.71.95,1.81,1.12,2.99-.8,3.96m11.27-7.43c-.09.18-.18.23-.29.08-.09-.12-.06-.36.11-.42.06-.02.07.03.12.05.07.03.14-.03.18.03.06.09-.09.17-.12.25m.68,1.85s.04-.07.06-.05c.03.03,0,.05-.06.05m3.3.42s.02-.03-.02-.05c-.04-.02-.06.03-.05.01.01-.02.04-.09.08-.07s0,.09,0,.11m1.5-.15c-.19-.03-.33-.01-.31-.06.03-.07.51-.3.62-.28.36.07.07.39-.31.33m2.46.85s.09,0,.15.03c-.06.04-.1.1-.12.1-.06,0-.09-.07-.03-.13m.06,1.36s.07-.04.07-.03c.02.04-.02.04-.07.03m1.51-2.94c-.06.04-.06.04-.06-.05,0-.1.02-.17.11-.13.07.03,0,.14-.05.17m.24-6.77c-.08-.03-.12-.05-.05-.08.09-.04.17,0,.11.05-.02.02-.01.04-.06.03m.31-.69c-.02-.07-.01-.15.12-.14.15,0,.19.11.15.18-.04.08-.24.05-.28-.04m.95-.62s-.02.03-.06-.02c-.03-.04-.05-.09.02-.09.08,0,.06.06.04.11m.23-1.17c-.17.03-.32.03-.51-.1-.13-.09-.29-.25-.26-.33.01-.03.17-.02.27-.06.35-.14.88,0,.88.29,0,.16-.2.16-.39.19m2.29,4.71c-.13.06-.13.11-.16,0-.05-.14.09-.29.23-.23.13.06.07.15-.07.22m.22-1.75c0-.1.03-.17.11-.19.06,0,.14-.04.17.03.04.09-.04.1-.14.17-.11.08-.15.09-.14-.02m.35,1.92c-.13,0-.12.05-.21-.03-.1-.08-.08-.25.07-.29.15-.04.2.06.28.17.08.11.02.15-.14.15m.26-1.93s0,0,0,0c.03.01.11.03.1.05-.02.05-.07,0-.09-.04m.43-2.72c-.08.12-.08.16-.11.03-.03-.12.04-.24.16-.2.1.03.02.06-.05.17m.78,4.54s-.06.08-.1.08c-.04,0-.03-.09-.03-.12,0-.06.1-.18.18-.14.03.01-.08.11-.09.14-.01.03.05.05.04.05m.3.01s0,0,0,0c.01.02,0,.01,0,0m1.36-2.15s0,.06-.05.07c-.1,0-.17.07-.24-.02-.03-.04-.03-.16-.08-.2-.05-.04-.2-.1-.19-.12.03-.07.26.02.45.14.16.1.13.08.1.13m1.05,3c-.05.03-.02.07-.03,0,0-.07.05-.12.11-.06.03.03-.06.04-.08.05m1.81.73s.03-.01.05,0c0,.02.05.03.05.02,0,0-.09,0-.1-.01m0-.94c-.09.01-.17.01-.18-.04,0-.07.18-.18.26-.13.08.05.01.16-.08.17m.58.52c-.06.02-.1.02-.1-.04,0-.08.06-.18.14-.14.06.03.01.16-.05.18m.38.23s-.03.03-.03,0c0-.06.09-.09.13-.04.03.04-.05.06-.1.04m.47-4.68c-.08.06-.09.09-.1.01,0-.07.15-.15.21-.1.04.04-.06.04-.11.08m2.29-2.93c-.08-.04-.2-.05-.19-.1.01-.13.26-.05.29.09.03.11.04.08-.1.01m-1.87.3s0,0,0,.01c0,.03-.02.07-.04.06-.02,0,.03-.06.03-.07m.1,5.14c0,.09-.1.09-.17.03-.06-.05-.1-.08-.04-.1.02,0,.09-.1.15-.08.08.02.06.1.05.15m.3-4.44c.07-.05.08-.08.16-.06.24.04.26.14.17.25-.11.14-.19.24-.3.13-.02-.02.08-.2.06-.26-.02-.06-.15-.02-.1-.05m.36,3.29s.06,0,.06.03c0,.02-.03,0-.06-.03m.05-.41c-.06.05-.29.09-.3.03,0-.08.2-.25.28-.21.11.05.07.13.02.18m.05-3.44c-.04.09-.17.11-.33.03-.11-.05-.21-.06-.2-.12.03-.14.16-.18.26-.23.09-.04.17-.15.26-.07.12.11.05.3,0,.38m.31-1.25c.15-.02.25-.09.47,0,.23.1.22.19.24.28.03.09.12.18.03.24-.19.15-.39.06-.63-.06-.15-.07-.19-.17-.24-.25-.11-.16-.11-.18.12-.21m.91,2.14c.04.08-.01.24-.12.34-.08.07-.32.04-.48,0-.06-.02-.14-.04-.22-.15-.08-.11-.19-.21-.17-.24.02-.02.13,0,.16-.04.04-.04-.05,0-.1-.02-.05-.02,0-.15.02-.19.01-.04-.05-.12-.07-.19-.02-.12,0-.24.12-.35-.02-.06-.01-.16.07-.19.11-.04.24-.01.32.09.07.08.04.29.24.36.32.11.35.03.29.16-.03.06.09.08.1.1.01.02-.11.11-.13.15-.02.04-.03.13-.01.17m.15.58s0-.03-.05-.05c-.06-.02-.07.04-.05,0,.02-.04.05-.11.1-.07.04.03,0,.1,0,.12m.08-.67s-.03.05-.02.05c0,0-.01-.09.01-.1.02,0,.02.03,0,.05m.62.76s-.01,0-.01,0c0,0,0,0,.01.01-.03,0-.08-.02-.07-.04,0-.01.05.01.07.03m.98,3.14s0-.03,0-.03c.01,0,0,.01,0,.03m.01-2.34s-.03.05-.02.05c0,0-.01-.09.01-.1.02,0,.01.03,0,.05m.53,1.73c-.06.13-.16.14-.19,0-.02-.09.07-.22.13-.16.02.02.04.11.06.09.05-.04.04,0,0,.06m2.72.89c-.04.06-.06.08-.08.02-.03-.08.03-.17.12-.13.07.03,0,.07-.04.11m.34.11c-.18-.2-.16-.4.08-.47.21-.06.33-.15.5-.07.11.05.1.17.13.27.13.41-.39.61-.7.27m1.26-2.05s0-.01-.03-.03-.06.03-.04,0c.01-.03.05-.11.09-.09.04.02,0,.1-.01.12m.29.52s-.1-.05-.08-.07c.05-.06.11-.02.08.04-.02.03.03.04,0,.03m3.79-.8c-.13.05-.19.06-.3-.06-.07-.08-.17-.22-.11-.34.09-.18.56-.05.59.16.03.15-.03.19-.18.24" fill="#fff" stroke-width="0"/><path d="m125.25,11.08s0,0,0,0c-.04.14-.18.21-.27.23,0,0-.03.02-.04.04.1,0,.26.02.33-.09,0-.05-.02-.13-.02-.18" fill="#fff" stroke-width="0"/><path d="m4.12,92.07c-.06,0-.14-.06-.18-.13-.11-.15-.21-.16-.22-.02,0,.06.08.17.2.24.26.16.29.17.3.03,0-.06-.03-.11-.09-.12" fill="#fff" stroke-width="0"/><path d="m6.68,90.72c-.12-.24-.04-.44.15-.42.17.01.52-.29.46-.4-.02-.05.01-.1.08-.12.14-.04.15-.09.07-.24-.05-.09-.11-.09-.35-.04-.16.04-.32.09-.35.13-.03.04-.2.06-.39.05-.19,0-.36,0-.39.03-.03.02-.02.15.01.29.04.17.03.27-.03.33-.13.13-.04.25.21.27.44.04.57.47.24.8-.24.23-.79-.05-.69-.34.08-.21-.03-.55-.2-.66-.12-.07-.18-.06-.31.05-.21.18-.29.11-.15-.14.12-.2.1-.32-.07-.34-.06,0-.1-.06-.1-.12,0-.1-.04-.12-.3-.1-.3.02-.3.02-.21-.12.1-.15.09-.24-.04-.29-.12.1-.24.2-.36.3.08.09.11.21.07.39-.01.08-.09.08-.33.02-.06-.01-.12-.02-.17-.03-.22.2-.43.41-.64.62.02,0,.06,0,.11-.03.11-.05.17-.04.2.02.02.05.1.08.17.06.15-.03.15.13,0,.26-.16.13-.15.42.01.48.08.03.14.08.14.11-.01.11.23.17.3.08.1-.13.15-.82.07-.93-.04-.05-.06-.16-.03-.26.03-.14.1-.17.29-.17.17,0,.27-.04.3-.14.03-.08.09-.13.15-.13.07,0,.09.11.07.34-.03.29,0,.38.19.58.11.12.22.08.22.24,0,.13-.12.06-.22.13-.16.1-.22.2-.24.39-.03.29.05.32.41.18.16-.06.36-.07.59-.02.14.03.23.04.31.03.09-.07.19-.13.29-.19.03-.05.08-.09.13-.1.33-.23.65-.46.97-.67-.06.03-.15.03-.28.02-.21-.02-.29-.07-.37-.23m-.45-.63s-.08.07-.12.06c-.04,0-.07-.04-.06-.08,0-.04.06-.07.12-.06.06,0,.09.04.06.08m-.84,1.15c-.14.22-.21.16-.18-.13.02-.16.05-.21.16-.2.17.02.18.08.02.33" fill="#fff" stroke-width="0"/><path d="m100.22,17.5s-.02-.03-.05-.05c.02.03.04.06.05.05" fill="#fff" stroke-width="0"/><path d="m124.94,11.35h-.01c-.09,0-.15-.01-.22-.04.02.07.04.12.09.13.04.01.1-.05.14-.09" fill="#fff" stroke-width="0"/><path d="m8.32,89.5c-.11-.06-.16-.17-.16-.33,0-.14-.05-.28-.13-.33-.11-.07-.17-.04-.34.15-.26.29-.29.43-.08.51.13.05.14.09.08.26-.04.11-.11.4-.14.64-.04.28-.08.43-.17.5.15-.1.29-.2.44-.29-.06-.02-.09-.03-.09-.04,0-.02.09-.17.2-.35.14-.24.23-.31.32-.28.15.05.31-.08.27-.23-.02-.06-.1-.15-.19-.19" fill="#fff" stroke-width="0"/><path d="m2.72,90.83c-.13.13-.26.27-.39.41.12.02.24.04.29.06.23.09.29-.06.15-.34-.02-.04-.04-.08-.05-.13" fill="#fff" stroke-width="0"/><path d="m7.46,87.22c-.06.04-.13.08-.19.12.06.03.11.04.15.02.06-.03.07-.07.05-.14" fill="#fff" stroke-width="0"/><path d="m9.78,88.23c-.25.1-.66.1-.65,0,0-.05.08-.2.18-.34.25-.38.24-.58-.03-.87-.26-.27-.39-.28-.55-.03-.08.12-.09.2-.04.33.1.23-.1.27-.37.08-.17-.12-.23-.13-.34-.06-.17.12-.16.19.07.36.11.08.18.18.16.21-.02.03-.03.18-.02.32.02.19.07.26.17.27.15.01.24.14.23.32-.01.18.14.22.18.04.04-.17.22-.23.6-.19.13.01.26-.01.29-.05.03-.04.13-.06.23-.05.23.02.32-.1.18-.26-.09-.1-.14-.12-.28-.06m-.99-.4c0-.06.06-.11.13-.11.06,0,.1.05.08.1-.06.13-.22.14-.21.01" fill="#fff" stroke-width="0"/><path d="m100.16,17.43h0s0,.02.01.02c0,0,0-.02-.01-.02" fill="#fff" stroke-width="0"/><path d="m100.16,17.43s0-.03,0-.03c0,0,0,.01,0,.03" fill="#fff" stroke-width="0"/><path d="m15.7,87.56c-.24.05-.4.12-.4.19,0,.06.02.11.06.14.09,0,.18-.02.27-.03,0,0,.02,0,.02,0,0,0,.02,0,.02-.01.14-.1.16-.12.13,0,.25-.02.49-.04.73-.06-.03-.02-.07-.06-.09-.11-.11-.2-.22-.22-.74-.11" fill="#fff" stroke-width="0"/><path d="m10.55,88.79c.06.08.1.08.18.02.07-.06.06-.09-.08-.1-.14-.01-.16,0-.1.08" fill="#fff" stroke-width="0"/><path d="m115.5,16.33h0s0,0,0,.01c0,.02,0-.03,0-.01" fill="#fff" stroke-width="0"/><path d="m32.9,26.05s.02.03.03.02.02-.01,0-.03c-.01-.01-.03-.03-.03-.02s-.01.01,0,.03" fill="#fff" stroke-width="0"/><path d="m37.21,37.78c0-.1-.02-.13-.07-.15-.03-.01-.07-.02-.08-.02-.06,0-.16.16-.18.28-.03.12-.02.13.05.19.09.07.17.07.22,0,.01-.03.05-.05.08-.05.07,0,.09-.04.04-.08-.02-.02-.04-.09-.05-.16" fill="#fff" stroke-width="0"/><path d="m36.89,36.19s0,.03.04.02c.03,0,.05-.03.04-.04-.01-.04-.07-.03-.08.02" fill="#fff" stroke-width="0"/><path d="m37.15,37.1s.02.1.03.11c.04.03.11,0,.18-.08.09-.11.07-.26-.04-.26-.1,0-.19.12-.17.23" fill="#fff" stroke-width="0"/><path d="m37.44,36.17s.1,0,.1-.04c0-.01-.02-.03-.04-.04-.04-.02-.09.04-.06.08" fill="#fff" stroke-width="0"/><path d="m36.86,36.41s.02.04.03.03c.04-.02.04-.07,0-.07-.02,0-.03.01-.03.04" fill="#fff" stroke-width="0"/><path d="m37.3,32.71s.05.03.08.02c.06,0,.07-.11,0-.13-.04-.02-.11.07-.08.11" fill="#fff" stroke-width="0"/><path d="m36.9,34.24c-.1-.03-.21.16-.16.28.04.09.15.08.2-.02.05-.1.03-.25-.03-.26" fill="#fff" stroke-width="0"/><path d="m36.28,31.19s.02.04.05.04c.02,0,.04-.02.04-.05,0-.02-.02-.04-.05-.04-.02,0-.04.02-.04.05" fill="#fff" stroke-width="0"/><path d="m37.49,33.45s.07.01.06-.03c0-.02-.02-.04-.05-.04-.04,0-.05.04-.01.07" fill="#fff" stroke-width="0"/><path d="m36.27,33.5s.01.01.03,0c.02,0,.03-.02.03-.03,0-.02-.02-.02-.03,0-.01.01-.02.03-.02.03" fill="#fff" stroke-width="0"/><path d="m36.4,33.73s.04.02.07.01c.06-.02.06-.15,0-.14-.05,0-.1.09-.08.12" fill="#fff" stroke-width="0"/><path d="m36.8,31.24s-.02-.04-.06-.04c-.06,0-.07.07-.03.1.03.03.08,0,.08-.06" fill="#fff" stroke-width="0"/><path d="m38.7,37.91s.02.03.04.02c.03,0,.04-.02.03-.04-.02-.04-.06-.03-.07.02" fill="#fff" stroke-width="0"/><path d="m37.81,37.08s.02.03.03.02c.02,0,.02-.01,0-.03-.01-.01-.03-.03-.03-.02s-.01.01,0,.03" fill="#fff" stroke-width="0"/><path d="m38.75,36.57c-.01-.08-.03-.1-.09-.12-.13-.03-.18,0-.21.13-.03.14-.02.2.03.27.02.03.05.05.07.05.15-.02.23-.15.21-.33" fill="#fff" stroke-width="0"/><path d="m51.5,29.29s-.03-.03-.04-.02c-.04.02-.04.04.01.04.02,0,.04,0,.03-.02" fill="#fff" stroke-width="0"/><path d="m38.62,37.21s-.03.05-.02.06c.02.03.07.02.08-.01.03-.05-.03-.09-.06-.05" fill="#fff" stroke-width="0"/><path d="m39.35,35.23s-.01.05,0,.06c.02.03.06.02.08-.02,0-.02,0-.04-.02-.06-.03-.02-.04-.02-.06.02" fill="#fff" stroke-width="0"/><path d="m39.91,30.25c-.02-.13-.05-.15-.16-.14-.15.02-.23.14-.2.31.02.11.04.14.1.16.15.05.29-.13.26-.33" fill="#fff" stroke-width="0"/><path d="m36.13,26.36s.02.03.03.02c.02,0,.03-.02.02-.05,0-.02-.02-.03-.03-.02-.01.01-.02.03-.02.05" fill="#fff" stroke-width="0"/><path d="m37.75,33.99c-.05.06-.06.14-.02.17.09.07.18-.1.1-.19-.03-.03-.04-.03-.08.02" fill="#fff" stroke-width="0"/><path d="m38.11,33.83s-.04-.06-.06-.07c-.04-.02-.12.15-.09.21.05.1.2-.03.16-.13" fill="#fff" stroke-width="0"/><path d="m37.95,38.04h0s.04.03.15-.01c.11-.04.1-.1-.01-.1-.09,0-.18.07-.14.11" fill="#fff" stroke-width="0"/><path d="m38.45,35.13s-.03.01-.03.04c0,.02.03.04.05.04.05,0,.03-.07-.02-.08" fill="#fff" stroke-width="0"/><path d="m38.09,34.99c.03.06.12.02.12-.06,0-.05-.01-.06-.06-.06-.07,0-.09.06-.06.11" fill="#fff" stroke-width="0"/><path d="m38.77,34.65c-.08,0-.11.11-.05.17.08.07.23,0,.22-.1,0-.05-.06-.08-.17-.06" fill="#fff" stroke-width="0"/><path d="m34.74,24.45s-.02.07,0,.1c.04.06.18,0,.16-.08-.02-.07-.11-.08-.16-.02" fill="#fff" stroke-width="0"/><path d="m36.02,29.74s.03.04.07-.02c.06-.08.03-.17-.04-.14-.05.02-.07.1-.03.16" fill="#fff" stroke-width="0"/><path d="m34.23,28.38s.05.04.11.01c.05-.03.05-.09-.01-.12-.06-.03-.13.05-.1.11" fill="#fff" stroke-width="0"/><path d="m34.64,26.04s0,.03.03.02c.03,0,.04-.02.04-.03,0-.01-.01-.03-.03-.02-.02,0-.03.02-.04.03" fill="#fff" stroke-width="0"/><path d="m35.18,29.91s.03.03.03.02.01-.01,0-.03c0-.02-.02-.03-.03-.03-.02,0-.02.02,0,.03" fill="#fff" stroke-width="0"/><path d="m35.18,26.61s.07.01.06-.03c0-.02-.02-.04-.03-.04-.03,0-.05.05-.03.07" fill="#fff" stroke-width="0"/><path d="m35.04,27.21s.01.01.03,0c.02,0,.03-.02.03-.03,0-.02-.02-.02-.03,0-.01.01-.02.03-.02.03" fill="#fff" stroke-width="0"/><path d="m19.85,82.89s-.1.03-.16.07c-.08.06-.08.1-.01.14.05.04.11.05.15.03.08-.04.1-.24.02-.25" fill="#fff" stroke-width="0"/><path d="m21.1,85.37c-.1.05.05.26.18.27.06,0,.1-.04.11-.09.01-.12-.18-.23-.29-.18" fill="#fff" stroke-width="0"/><path d="m33.8,26.06c-.03.06-.03.2,0,.23.09.07.14-.15.06-.25-.03-.03-.04-.03-.07.02" fill="#fff" stroke-width="0"/><path d="m34.08,26.54l-.04.07c-.06.1-.07.26-.02.31.06.05.09.04.12-.06.04-.11.03-.15-.02-.25l-.04-.08Z" fill="#fff" stroke-width="0"/><path d="m33.56,27.37s.02.03.03.02c.02,0,.03-.02.03-.03,0-.01-.02-.03-.03-.02-.01,0-.02.02-.02.03" fill="#fff" stroke-width="0"/><path d="m34.97,26.27s.02.04.03.04c.02,0,.03-.02.02-.05,0-.02-.02-.04-.03-.04-.01,0-.02.02-.02.05" fill="#fff" stroke-width="0"/><path d="m35.33,31.62s-.02.04.02.06c.06.03.1-.03.05-.07-.03-.02-.05-.02-.07.01" fill="#fff" stroke-width="0"/><path d="m36.36,28.07s-.02-.04-.05-.04c-.02,0-.04.03-.04.05,0,.02.02.04.05.04.02,0,.04-.02.04-.05" fill="#fff" stroke-width="0"/><path d="m35.79,28.45s.03.01.05,0c.03-.04,0-.07-.04-.04-.02.01-.02.03,0,.05" fill="#fff" stroke-width="0"/><path d="m37.09,35.76s-.1.03-.07.09c.01.02.04.04.05.04.05,0,.06-.09.02-.12" fill="#fff" stroke-width="0"/><path d="m35.99,33.38s.1-.02.09-.05c0-.01-.02-.03-.03-.03-.03-.01-.09.06-.06.08" fill="#fff" stroke-width="0"/><path d="m35.75,32.7s.07.01.06-.03c0-.02-.02-.04-.03-.04-.03,0-.05.05-.03.07" fill="#fff" stroke-width="0"/><path d="m35.54,29.81s0,.05.01.07c.03.06.1.04.09-.02,0-.06-.09-.09-.11-.05" fill="#fff" stroke-width="0"/><path d="m37.12,37.25s-.09,0-.06.06c.01.02.03.04.04.04.04,0,.06-.07.02-.1" fill="#fff" stroke-width="0"/><path d="m37.26,35.17s.11,0,.12-.05c0-.03-.01-.05-.05-.04-.06,0-.1.06-.06.1" fill="#fff" stroke-width="0"/><path d="m37.38,36.33s.01-.01,0-.03c0-.02-.02-.03-.03-.03-.02,0-.02.02,0,.03.01.01.03.02.03.02" fill="#fff" stroke-width="0"/><path d="m37.12,34.32s.02-.03.04-.07c.04-.08,0-.16-.06-.16-.11.01-.14.16-.04.21.03.01.06.02.06.02" fill="#fff" stroke-width="0"/><path d="m39.74,36.28s.04.24.1.28c.06.05.11.05.16-.02.07-.1.03-.18-.11-.23-.07-.02-.14-.04-.15-.04" fill="#fff" stroke-width="0"/><path d="m49.89,33.09s.02.03.03.02c.02,0,.03-.02.02-.03,0-.01-.02-.03-.03-.02-.02,0-.03.02-.03.03" fill="#fff" stroke-width="0"/><path d="m48.72,34.83c.06.03.1,0,.09-.06,0-.03-.03-.06-.06-.06-.06,0-.09.09-.03.12" fill="#fff" stroke-width="0"/><path d="m48.98,32.55s0,.06.01.07c.03.03.08-.01.07-.07-.01-.07-.07-.08-.08,0" fill="#fff" stroke-width="0"/><path d="m50.62,32.49s.02.04.03.04c.01,0,.03-.02.02-.05,0-.02-.02-.04-.03-.04-.01,0-.02.02-.02.05" fill="#fff" stroke-width="0"/><path d="m50.62,30.97s.02.01.05,0c.02,0,.03-.02.02-.03-.02-.03-.07,0-.07.03" fill="#fff" stroke-width="0"/><path d="m47.04,33.62s.04.02.07.02c.07,0,.09-.09.03-.11-.05-.01-.13.06-.1.09" fill="#fff" stroke-width="0"/><path d="m46.39,33.67s.11,0,.12-.05c0-.03-.01-.05-.05-.04-.06,0-.1.06-.06.1" fill="#fff" stroke-width="0"/><path d="m46.67,35.3s.02.03.03.02c.02,0,.03-.02.03-.03,0-.02-.02-.03-.03-.03-.01,0-.02.02-.02.03" fill="#fff" stroke-width="0"/><path d="m48.21,33.07s-.04.13.01.14c.06.02.08.01.1-.05.03-.07-.05-.13-.11-.09" fill="#fff" stroke-width="0"/><path d="m46.92,34.02c.03.08.12.08.16.01.04-.06.01-.13-.06-.16-.08-.03-.14.06-.11.15" fill="#fff" stroke-width="0"/><path d="m39.92,27.92s-.03.08-.03.1c0,.05.09.04.1-.02,0-.03,0-.07-.01-.09-.02-.04-.03-.04-.06.01" fill="#fff" stroke-width="0"/><path d="m53.46,28.51c.06-.05,0-.11-.1-.12-.12,0-.15.02-.08.1.06.06.12.07.18.02" fill="#fff" stroke-width="0"/><path d="m51.83,32.49c.08.11.16.11.2,0,.05-.13.06-.2.03-.29-.06-.17-.19-.2-.24-.06-.06.17-.06.25.01.34" fill="#fff" stroke-width="0"/><path d="m51.08,30.32s-.04.06-.05.11c-.01.08,0,.12.05.19.06.07.08.08.14.07.07-.01.08-.03.07-.09-.01-.15-.14-.31-.22-.28" fill="#fff" stroke-width="0"/><path d="m51.99,29.67s0-.03-.02-.03c-.01,0-.03,0-.03.02,0,.02,0,.03.02.03.01,0,.03,0,.03-.02" fill="#fff" stroke-width="0"/><path d="m51.79,28.68s.02-.06-.03-.07c-.03,0-.06,0-.06.02,0,.03.06.07.09.05" fill="#fff" stroke-width="0"/><path d="m51.57,33.38v-.09s-.06.08-.06.08c-.02.04-.04.09-.03.1.04.06.1,0,.09-.08" fill="#fff" stroke-width="0"/><path d="m52.67,31.06s.03-.09-.01-.08c-.02,0-.05.03-.05.05,0,.04.03.05.06.03" fill="#fff" stroke-width="0"/><path d="m54.01,26c.09-.04.07-.09-.03-.12-.07-.02-.09-.01-.1.05-.01.08.04.12.12.07" fill="#fff" stroke-width="0"/><path d="m54.2,25.93c.05-.01.08-.17.04-.23-.06-.08-.1-.05-.12.07-.02.12,0,.17.07.15" fill="#fff" stroke-width="0"/><path d="m45.49,32.59c.03.05.06.05.1,0,.04-.05.03-.11-.02-.11-.06,0-.11.07-.08.11" fill="#fff" stroke-width="0"/><path d="m54.11,27.43c.06-.07.06-.09.03-.15-.05-.11-.17-.15-.29-.11-.1.03-.1.04-.09.14,0,.08.04.13.08.16.09.07.18.05.26-.04" fill="#fff" stroke-width="0"/><path d="m53.7,29.73s0-.09-.08-.11c-.06-.01-.09.05-.05.12.03.05.09.04.13-.01" fill="#fff" stroke-width="0"/><path d="m50.84,32.51s.07-.01.06-.05c0-.01-.02-.02-.05-.02-.04,0-.05.04-.02.07" fill="#fff" stroke-width="0"/><path d="m50.39,21.76s.04-.05-.01-.13c-.07-.1-.1-.12-.17-.08-.06.03-.06.07.01.18.06.09.1.1.17.03" fill="#fff" stroke-width="0"/><path d="m46.5,26.63c-.06.04-.06.09,0,.14.05.04.07.03.12-.03.04-.05.03-.06-.01-.1-.04-.04-.07-.04-.1-.01" fill="#fff" stroke-width="0"/><path d="m46.93,27.15c-.04.07-.03.09.02.1.04,0,.06-.01.07-.06.01-.08-.05-.1-.09-.04" fill="#fff" stroke-width="0"/><path d="m47.8,21.68s-.01-.01-.03-.02c-.01,0-.03,0-.03.03,0,.01,0,.02.03.01.02,0,.03-.02.03-.02" fill="#fff" stroke-width="0"/><path d="m42.27,24.34s.07.03.08,0c0-.01,0-.04-.03-.05-.05-.03-.09.02-.05.06" fill="#fff" stroke-width="0"/><path d="m47.89,22.94s.03-.06-.01-.07c-.02,0-.04,0-.04.02,0,.03.03.06.06.05" fill="#fff" stroke-width="0"/><path d="m42.37,25.84s-.02.06.01.08c.06.05.14.04.16-.03.04-.11-.11-.15-.18-.05" fill="#fff" stroke-width="0"/><path d="m41.46,29.21s.02.03.03.02c.01-.01.02-.03,0-.05-.03-.04-.05-.03-.04.02" fill="#fff" stroke-width="0"/><path d="m40.36,32.68s-.01.04.02.05c.06.03.09,0,.05-.05-.03-.03-.05-.03-.07,0" fill="#fff" stroke-width="0"/><path d="m40.36,29.78s.02.05.04.07c.05.04.09-.01.06-.07-.03-.05-.11-.05-.1,0" fill="#fff" stroke-width="0"/><path d="m40.89,26.61s.03.04.05.03c.07-.02.07-.09,0-.08-.03,0-.06.03-.05.05" fill="#fff" stroke-width="0"/><path d="m40.64,27.29s.02.03.04.02c.03,0,.04-.02.03-.04-.02-.04-.06-.03-.07.02" fill="#fff" stroke-width="0"/><path d="m47.03,26.39s.09.02.12-.03c.03-.05,0-.08-.07-.07-.06,0-.09.06-.06.09" fill="#fff" stroke-width="0"/><path d="m48.14,25.79s.07-.01.06-.05c0-.01-.02-.03-.05-.02-.04,0-.05.04-.02.07" fill="#fff" stroke-width="0"/><path d="m48.79,23.18s0,.03.02.03c.02,0,.03,0,.03-.02,0-.02,0-.03-.02-.03-.01,0-.03,0-.03.02" fill="#fff" stroke-width="0"/><path d="m48.32,22.31s-.03.01-.04.04c0,.06.02.08.06.05.03-.02.02-.07-.02-.09" fill="#fff" stroke-width="0"/><path d="m48.64,21.09s0,.07.04.07c.03,0,.06,0,.07-.02.03-.05.03-.06,0-.1-.05-.05-.09-.03-.11.05" fill="#fff" stroke-width="0"/><path d="m48.32,27.51s.02.03.03.03c.02,0,.03-.02.03-.03,0-.02-.02-.03-.03-.02-.01,0-.03.02-.02.03" fill="#fff" stroke-width="0"/><path d="m47.34,25.77s.03.05.08.05c.08,0,.08-.01.04-.07-.03-.06-.13-.04-.12.03" fill="#fff" stroke-width="0"/><path d="m47.17,26.4s0,.04.02.07c.04.05.04.05.04,0,0-.05-.03-.1-.06-.07" fill="#fff" stroke-width="0"/><path d="m45.05,32.66s-.01.05,0,.08c.03.06.12.03.12-.04,0-.06-.08-.09-.12-.04" fill="#fff" stroke-width="0"/><path d="m47.8,24.77c-.08.08-.09.21-.04.42.04.17.1.17.2.04.03-.04.07-.14.08-.22.02-.12.01-.16-.03-.22-.07-.1-.12-.1-.21-.02" fill="#fff" stroke-width="0"/></g></g></svg>