<?xml version="1.0" encoding="UTF-8"?><svg id="b" xmlns="http://www.w3.org/2000/svg" viewBox="0 0 142.61 91.44"><g id="c"><g id="d"><path d="m123.54,57.84c-4.28,3.05-4.4,2.82-8.97,4.98-4.42,2.09-4.41,2.34-9.03,3.42-21.17,4.94-21.25,4.28-42.51,8.54-21.25,4.26-21.31,3.83-42.5,8.58-6.1,1.37-6.15,1.2-12.06,3.6-4.13,1.68-3.75,3.16-7.96,4.45-.72.22-.6-1.27-.08-1.98,3.06-4.19,3.43-3.65,6.89-7.25,3.09-3.21,2.37-5.29,6.23-6.24,21.96-5.41,22.19-3.32,44.41-6.41,22.22-3.09,22.33-1.89,44.46-5.86,7.15-1.28,7.12-1.79,14-4.65,5.67-2.36,5.49-2.97,11.03-5.79.17-.09.2.25.09.46-1.43,2.77-1.78,2.58-3.99,4.16m11.87-48.52c-4.82,3.92-4.63,5.23-10.2,6.53-22.53,5.27-22.76,3.12-45.51,6.37-22.75,3.25-22.82,2.45-45.49,6.56-5.14.93-5.12,1.31-10.04,3.49-4.09,1.82-3.94,2.35-7.99,4.35-.18.08,0-.05.11-.24.88-1.4.7-1.68,1.8-2.76,1.86-1.83,1.86-1.94,4.01-3.07,5.37-2.81,5.31-3.32,10.98-4.7,22.14-5.39,22.26-4.47,44.52-8.92,22.26-4.45,22.35-3.71,44.55-8.65,6.1-1.36,6.11-1.49,12.02-3.89,4.13-1.68,3.77-3.07,7.98-4.36.72-.22.46,1.08.06,1.91-2.35,4.94-3.07,4.33-6.82,7.38m-102.51,11.53c-5.3,1.37-4.86,3.22-9.9,5.77-.17.09-.2-.46-.06-.62,1.86-2.23,1.72-2.55,3.93-4.15,3.79-2.75,3.69-3.59,7.94-4.54,20.17-4.51,20.29-3.5,40.63-6.33,5.04-.7,15.16-1.44,10.14-.48-26.37,5.04-26.55,3.6-52.68,10.35m82.9,48.71c-3.79,2.75-3.73,3.29-7.99,4.25-20.17,4.51-20.26,3.69-40.6,6.51-5.04.7-15.12,1.78-10.13.61,26.22-6.17,26.53-3.78,52.66-10.52,5.3-1.37,4.95-2.84,9.99-5.39.17-.09.06.14-.05.34-1.49,2.7-1.68,2.61-3.89,4.21m-48.93-30.17c1.51-3.05,3.02-5.52-.17-6.7-5.59-2.07-6.26-.15-11.61,2.49-3.74,1.84-3.56,2.42-5.62,6.05-1.63,2.87-2.33,3.17-1.72,6.41.42,2.21,1.34,2.2,3.39,3.11,2.32,1.03,2.74-.44,5.13.4.89.31,1.07.72,1.11,1.66.08,1.68-.07,1.79-1.06,3.14-1.13,1.53-1.17,1.68-2.94,2.38-2.56,1.03-2.66,1.07-5.42,1.06-2.15,0-2.94-2.93-4.04-1.09-1.93,3.23-3.26,6.1.28,7.38,6.26,2.26,7.03.32,13.05-2.53,3.76-1.79,3.72-2.5,5.7-6.17,1.91-3.54,2.41-3.9,1.89-7.89-.29-2.23-1.31-2.24-3.36-3.15-2.32-1.03-2.74.44-5.14-.4-.89-.31-.86-.71-.97-1.65-.14-1.2-.09-1.28.65-2.23,1.01-1.28.97-1.56,2.49-2.16,2.48-.98,2.61-1.24,5.25-.81,1.83.3,2.35,2.19,3.09.68m23.61-3.57c1.51-3.05,2.84-5.81-.35-6.99-5.59-2.07-6.32.03-11.67,2.66-3.74,1.84-3.75,2.32-5.81,5.94-1.63,2.87-1.94,3.24-1.33,6.48.42,2.2,1.12,2.28,3.18,3.19,2.32,1.03,2.76-.48,5.15.36.89.31.91.72.95,1.66.08,1.68.15,1.83-.84,3.18-1.13,1.53-1.27,1.55-3.03,2.25-2.56,1.02-2.63,1.34-5.39,1.34-2.15,0-3.14-3.24-4.24-1.39-1.93,3.23-3.11,6.34.44,7.62,6.26,2.26,6.98,0,13-2.85,3.77-1.79,3.81-2.31,5.79-5.98,1.9-3.54,2.16-3.86,1.64-7.85-.29-2.23-1.07-2.22-3.12-3.13-2.32-1.03-2.7.34-5.1-.5-.89-.31-.88-.66-.99-1.6-.14-1.2-.04-1.23.71-2.18,1.01-1.28,1-1.39,2.52-1.99,2.48-.98,2.56-1.66,5.19-1.21,1.95.33,2.56,2.48,3.31.98m22.09,9.23c-.96-2.61-1.99,2.01-4.59,3.01-3.3,1.26-3.41,1.07-6.91,1.53-.32.04-.62-.26-.55-.57,2.14-9.84,2.32-9.81,5.02-19.51.61-2.19,3.82-3.5,1.68-4.27-4.11-1.47-4.95-.63-8.62,1.73-1.53.98.67,1.95.31,3.73-2.24,11.11-2.28,11.13-5.3,22.06-.61,2.21-4.31,4.04-2.02,4.1,9.32.24,9.42-.74,18.22-3.81,4.25-1.48,4.23-3.97,2.75-8m-67.31-8.76c-4.05-.83-4.45-.2-8.1,1.74-1.22.65.32,1.52-.18,2.81-2.41,6.28-2.7,6.17-5.5,12.29-1.31,2.86-1.6,8.51-2.86,5.62-3.18-7.32-1.33-7.9-1.79-15.86-.08-1.45,2.14-2.56.7-2.76-4.23-.59-4.69-.53-8.33,1.7-1.23.75.93,1.08,1.28,2.48,2.77,10.92,3.15,10.86,4.81,22,.22,1.47-2.42,2.59-.96,2.86,3.93.71,4.29.16,7.78-1.77,1.19-.66-.62-1.36-.12-2.62,5.11-12.96,4.86-13.12,11.4-25.42,1.01-1.9,3.63-2.7,1.88-3.06" stroke-width="0"/></g></g></svg>